<?xml version="1.0" encoding="UTF-8"?>
<svg id="Capa_1" data-name="Capa 1" xmlns="http://www.w3.org/2000/svg" viewBox="0 0 47.48 41.44">
  <defs>
    <style>
      .cls-1 {
        fill: #008069;
        stroke-width: 0px;
      }
    </style>
  </defs>
  <path class="cls-1" d="m41.61,29.59c-.21-2.15-.4-4.31-.77-6.44-.47-2.73-1.41-5.31-2.73-7.75-1.01-1.86-2.28-3.51-3.73-5.06-1.15-1.24-2.46-1.79-4.12-1.63-.6.05-1.2.06-1.85.09,0-.51,0-.97,0-1.43,0-1.2-.5-1.78-1.69-1.86-.77-.05-1.56.01-2.33.01-.46,0-.89.03-1.06.5-.22-.17-.4-.43-.6-.44-1.01-.06-2.04-.13-3.05-.05-1.07.09-1.51.68-1.51,1.77,0,.47,0,.95,0,1.49-.71-.04-1.33-.08-1.94-.1-.41-.01-.83-.04-1.23.02-1.26.19-2.15.94-3.02,1.85-2.57,2.68-4.27,5.84-5.41,9.33-.89,2.72-1.33,5.53-1.51,8.39-.05.9-.03,1.81,0,2.71.01.41.14.81.15,1.22.04.9.52,1.42,1.42,1.47.03,0,.06,0,.1,0,1.12,0,2.23,0,3.35,0,.84,0,1.4-.48,1.47-1.2.16-1.56.3-3.13.48-4.69.19-1.63.5-3.24,1.24-4.73.08-.17.19-.33.29-.49.07.19.08.33.07.47-.03,1.91-.11,3.82-.07,5.73.03,1.46.23,2.92.84,4.28.15.35.26.74.27,1.12.04,1.23.55,1.77,1.79,1.77,4.54,0,9.08,0,13.62,0,1.31,0,1.82-.52,1.83-1.81,0-.28.05-.56.14-.83.18-.56.47-1.09.6-1.65.5-2.21.53-4.45.43-6.7-.03-.79-.08-1.57-.12-2.36.18.14.31.3.37.49.33.98.74,1.94.93,2.94.26,1.39.33,2.81.49,4.22.08.69.21,1.38.27,2.07.06.76.51,1.32,1.28,1.34,1.26.04,2.52.04,3.77,0,.79-.03,1.26-.59,1.28-1.39,0-.3.02-.6.05-.9.07-.6.26-1.2.2-1.79Zm-5.89-16.5c.6.87,1.17,1.76,1.74,2.62-1.7.48-3.31.94-5.07,1.44.23-1.14.44-2.22.68-3.3.03-.13.21-.27.35-.32.62-.2,1.25-.37,1.88-.52.13-.03.35,0,.41.08Zm-.63-.84c-.56.15-1.05.29-1.65.46.24-.55.44-1,.67-1.53.36.39.64.7.98,1.07Zm-6.46-2.69c1.01,0,2.04-.12,3.04,0,.58.07,1.12.49,1.65.79.1.06.15.36.1.5-.39,1.07-.82,2.13-1.21,3.21-.08.22-.13.35-.4.36-2.32.12-4.61,0-6.87-.58-.32-.08-.43-.22-.42-.55.03-.65,0-1.3,0-1.93.59-.18,1.15-.29,1.67-.52.53-.24,1.04-.55,1.5-.91.29-.23.57-.37.94-.38Zm-4.1,5.07c1.29.18,2.49.42,3.71.51,1.2.09,2.41.02,3.65.02-.09,1.1-.17,2.14-.26,3.26-.58,0-1.19.05-1.78,0-1.59-.16-3.18-.38-4.78-.57-.41-.05-.58-.23-.56-.68.04-.86.01-1.71.01-2.52Zm.02,3.86c2.35.63,4.72.75,7.12.67.15,1.05.3,2.07.46,3.14-2.58.13-5.1.05-7.59-.67v-3.15Zm0,3.95c2.51.68,5.05.75,7.69.64v3.12c-1.56.35-6.21-.04-7.69-.65v-3.11Zm1.51-16.23c.38.06.73.09,1.07.18.34.09.52.34.51.71,0,.25,0,.51,0,.76,0,1.24-.34,1.72-1.59,2.18v-3.83Zm-2.37.88c.02-.51.4-.78.92-.8.2,0,.41,0,.65,0v4.12c-.52.08-1.02.15-1.59.23,0-1.23-.03-2.39.01-3.55Zm.04,4.33v21.56h-.89V11.42h.89Zm-2.41-5.12c.34,0,.71-.11.95.03.27.15.58.51.6.8.07,1.14.03,2.28.03,3.5-.56-.08-1.06-.15-1.58-.23v-4.1Zm-6.88,16.01c.15-1.06.3-2.08.46-3.15,2.38.07,4.76-.03,7.13-.67v3.15c-2.47.73-4.98.79-7.58.68Zm7.58.13v3.15c-2.52.7-5.09.82-7.68.66v-3.17c2.64.11,5.17.05,7.68-.64Zm-.38-4.65c-1.46.21-2.92.44-4.39.59-.75.08-1.52.01-2.3.01-.09-1.07-.17-2.11-.26-3.2,2.46.11,4.91-.03,7.36-.66,0,1.01-.01,1.93,0,2.85,0,.33-.2.37-.42.4Zm-2.68-10.75c.03-.23.25-.53.46-.63.31-.15.7-.14,1.09-.21v3.79s-.07.07-.11.11c-.43-.33-.87-.66-1.29-1.01-.09-.08-.15-.25-.16-.38-.02-.56-.05-1.12.02-1.67Zm-5.72,3.29c.66-.55,1.42-.88,2.26-.9.91-.01,1.81.08,2.72.15.16.01.35.08.46.19.86.79,1.87,1.26,3,1.46.28.05.38.14.37.43-.02.57-.02,1.15,0,1.72.01.28-.1.38-.36.45-1.66.45-3.35.58-5.06.59-.6,0-1.21-.01-1.81,0-.3,0-.38-.14-.47-.4-.38-1.06-.79-2.11-1.21-3.15-.1-.23-.09-.38.1-.53Zm-.78.85c.23.51.43.96.69,1.51-.6-.16-1.1-.29-1.67-.44.35-.38.64-.69.99-1.08Zm-2.61,21.74c-.96,0-1.91,0-2.87,0-.92,0-1.05-.14-.99-1.11h4.74c.14.9-.03,1.11-.88,1.11Zm1.25-3.01c-.07.32-.11.66-.16,1.02h-5.15v-2.98c.96.24,1.81.42,2.64.66.79.23,1.56.53,2.35.78.27.09.39.22.32.52Zm.03-1.3c-1.72-.48-3.44-.97-5.24-1.47.13-.98.26-1.98.4-3.04,1.86.27,3.6.76,5.3,1.4-.16,1.07-.31,2.1-.45,3.11Zm.63-3.96c-1.72-.46-3.47-.92-5.31-1.41.25-.97.51-1.96.77-2.98,2.04.32,3.96.84,5.77,1.58-.43.97-.84,1.91-1.24,2.81Zm2.13-3.79c-.03.31-.18.45-.52.31-1.87-.78-3.82-1.29-5.91-1.65.42-.97.8-1.87,1.2-2.77.04-.09.26-.19.36-.16,1.62.44,3.24.9,4.85,1.38.11.03.25.25.24.38-.05.84-.13,1.68-.22,2.52Zm-4.78-5.13c.57-.86,1.13-1.74,1.72-2.6.06-.09.28-.14.4-.11.65.16,1.29.34,1.93.53.13.04.31.17.33.28.24,1.09.46,2.2.69,3.33-1.76-.5-3.38-.95-5.07-1.43Zm5.32,14.25c-.09-.96-.14-1.92-.2-2.95,2.69.18,5.25.04,7.82-.62,0,1,.01,1.97-.02,2.94,0,.11-.23.27-.38.31-1.74.47-3.53.62-5.33.63-.51,0-1.02,0-1.52-.04-.13-.01-.35-.16-.36-.26Zm.59,2.6c-.15-.5-.31-.99-.49-1.56,2.57.09,5.04,0,7.49-.66v2.66h-.46c-1.96,0-3.91,0-5.87,0-.36,0-.57-.12-.67-.45Zm16.11,1.93c-.02.39-.24.62-.62.67-.17.02-.35.02-.52.02-4.44,0-8.89,0-13.33,0-1.12,0-1.29-.19-1.17-1.38h15.65c0,.25.01.47,0,.69Zm.31-1.7c-.04.1-.22.2-.33.2-2.15,0-4.3,0-6.44,0-.03,0-.06-.03-.1-.05v-2.5c1.28.17,2.5.41,3.73.49,1.22.08,2.44.02,3.82.02-.25.71-.44,1.29-.66,1.85Zm.72-2.87c-.01.11-.21.28-.33.29-2.36.12-4.71.02-7-.62-.12-.03-.28-.22-.28-.34-.02-.94-.01-1.87-.01-2.87,2.57.65,5.14.8,7.83.61-.07,1.02-.12,1.97-.21,2.92Zm1.02-8.76c-.29.12-.43.01-.46-.26-.11-.94-.22-1.89-.32-2.83,1.74-.7,3.44-1.2,5.2-1.51.1-.02.27.04.31.11.41.92.81,1.85,1.22,2.82-2.1.37-4.06.89-5.94,1.67Zm.41.66c1.78-.73,3.7-1.25,5.76-1.58.27,1.02.53,2.03.77,2.98-1.81.48-3.56.95-5.31,1.41-.38-.88-.79-1.82-1.22-2.81Zm1.4,3.66c1.69-.64,3.44-1.13,5.29-1.4.14,1.06.27,2.06.4,3.04-1.77.5-3.49.98-5.24,1.48-.14-.99-.3-2.03-.46-3.11Zm4.71,7.43c-.97,0-1.94,0-2.91,0-.91,0-1.05-.16-.96-1.12h4.69c.2.82-.02,1.12-.82,1.12Zm1.06-1.97c-1.66,0-3.26,0-4.86-.01-.1,0-.27-.15-.3-.26-.08-.29-.13-.59-.14-.89,0-.12.11-.3.21-.35,1.61-.65,3.26-1.12,5.08-1.45v2.96Z"/>
</svg>