<?xml version="1.0" encoding="UTF-8"?>
<svg id="Capa_1" data-name="Capa 1" xmlns="http://www.w3.org/2000/svg" viewBox="0 0 90.82 135.82">
  <defs>
    <style>
      .cls-1 {
        fill: #fff;
        stroke-width: 0px;
      }
    </style>
  </defs>
  <path class="cls-1" d="m7.85,66.53c.04,20.93,17.04,37.88,37.91,37.81,20.89-.08,37.76-16.99,37.75-37.86,0-20.93-16.98-37.9-37.86-37.85-20.95.05-37.85,17-37.8,37.9Zm37.77-32.91c18.11-.07,32.93,14.75,32.91,32.9-.02,18.15-14.71,32.82-32.86,32.82-18.14,0-32.83-14.67-32.87-32.82-.04-18.09,14.66-32.83,32.81-32.9Z"/>
  <path class="cls-1" d="m7.96,117.19h75.47v-4.77H7.96v4.77Z"/>
  <path class="cls-1" d="m11.65,21.79c4.2,1.77,8.49-.67,8.69-5.03h-2.75c-.09.25-.14.38-.18.51-.53,1.76-1.34,2.46-2.91,2.51-1.61.05-2.84-.73-3.39-2.28-.58-1.64-.56-3.3.12-4.91.56-1.32,1.61-2.01,3.03-2.04,1.38-.03,2.4.59,3.02,1.87.11.22.41.48.63.5.76.06,1.52.02,2.33.02-.02-.31-.01-.52-.06-.72-.74-3.17-4.12-4.92-7.65-3.97-2.8.75-4.62,3.15-4.83,6.4-.22,3.22,1.34,6.04,3.94,7.13Z"/>
  <path class="cls-1" d="m75.61,21.66c1.58.95,3.35.76,5.18-.61.06.32.12.62.18.9h2.41v-13.54h-2.65v4.53c-.8-.36-1.52-.85-2.29-.99-2.52-.46-4.44,1.12-4.95,3.94-.42,2.31.49,4.78,2.13,5.77Zm1.04-6.79c.94-1.41,3.05-1.31,3.78.22.28.58.33,1.26.5,1.92-.15.66-.21,1.34-.46,1.94-.66,1.55-2.65,1.74-3.68.4-.83-1.08-.9-3.33-.13-4.47Z"/>
  <path class="cls-1" d="m66.25,22.05c2.82.77,5.26-.42,6.06-3.04-1.65-.2-1.64-.19-2.96.74-.88.62-1.85.6-2.78.16-.85-.41-1.05-1.2-1.06-2.19h6.94c.46-2.67-1.13-5.24-3.48-5.75-2.8-.61-5.43.97-6.06,3.65-.72,3.02.67,5.71,3.33,6.44Zm1.32-8.16c1.2-.07,1.82.45,2.24,1.98h-4.27c.21-1.3.85-1.9,2.03-1.98Z"/>
  <path class="cls-1" d="m24.7,22.12c2.75.65,5.15-.62,5.82-3.16-1.13-.07-2.11-.21-3,.77-.67.74-1.75.61-2.66.21-.88-.39-1.12-1.17-1.15-2.2h6.97c.4-2.89-1.28-5.42-3.73-5.8-2.9-.45-5.34,1.18-5.87,3.91-.6,3.08.86,5.61,3.61,6.26Zm1.03-8.22c1.25-.11,1.93.47,2.29,2.03h-4.22c.08-1.27.73-1.93,1.93-2.03Z"/>
  <path class="cls-1" d="m52.68,21.95h2.73v-7.93c.66-.05,1.2-.09,1.78-.14v-1.71c-.61-.03-1.16-.06-1.87-.1.11-.51.06-1.14.32-1.3.48-.31,1.13-.35,1.71-.51v-1.79c-3.26-.48-4.33.33-4.79,3.62-.5.02-.95.04-1.42.06v1.72c.51.05.95.09,1.54.15v7.92Z"/>
  <path class="cls-1" d="m40.96,15.18c0,1.54,0,3.08,0,4.61,0,.95.32,1.82,1.31,2.02,1.09.22,2.23.21,3.33.3v-2.18c-.41,0-.79.09-1.09-.03-.3-.12-.74-.43-.75-.67-.06-1.73-.03-3.47-.03-5.26.66-.05,1.25-.08,1.87-.13v-1.73h-1.94v-2.9h-2.72v2.84c-.6.05-1.08.08-1.54.12v1.69c.53.05.97.09,1.55.14,0,.41,0,.78,0,1.15Z"/>
  <path class="cls-1" d="m14.25,130.82c-.82,1.42-2.97,1.43-3.84-.02-.87-1.44-.83-2.95,0-4.38.77-1.31,2.92-1.51,3.65-.25.65,1.13,1.47.88,2.43.85-.25-2.22-2.04-3.59-4.34-3.44-2.7.17-4.47,2.2-4.46,5.11.02,2.85,1.84,4.85,4.49,4.94,2.52.08,4.18-1.34,4.39-3.76-1.47-.35-1.6-.29-2.32.96Z"/>
  <path class="cls-1" d="m32.99,127.02c-.3-1.06-1.12-.38-1.79-.61v9.41h1.83v-2.99c1.9,1.06,3.27.97,4.27-.2,1.13-1.31,1.16-3.92.07-5.3-.98-1.24-2.51-1.34-4.39-.32Zm2.94,4.4c-.58,1.05-2.1,1.01-2.65-.07-.47-.92-.47-1.91,0-2.83.56-1.08,2.05-1.1,2.63-.02.24.44.3.98.44,1.48-.15.52-.2,1.02-.42,1.44Z"/>
  <path class="cls-1" d="m34.79,17.15c.06-1.74.92-2.66,2.4-2.75.34-.02.69,0,1.14,0v-2.44c-1.64-.32-2.68.54-3.67,1.72-.04-.6-.07-1.04-.11-1.49h-2.44v9.75h2.67c0-1.65-.05-3.22.01-4.79Z"/>
  <path class="cls-1" d="m57.73,126.79c-1.04-.83-3.53-.72-4.57.13-.44.36-.68.95-1.14,1.62,1.1-.02,1.9.37,2.51-.63.18-.3,1.07-.24,1.62-.19.18.02.49.72.43.77-.35.31-.76.62-1.2.76-.59.19-1.24.19-1.84.35-1.07.29-1.6,1.06-1.51,2.09.08,1.01.75,1.8,1.81,1.84.77.03,1.56-.22,2.33-.36.19-.03.39-.21.56-.17.63.15,1.24.36,1.83.54,0-1.88.07-3.48-.04-5.08-.04-.58-.35-1.32-.79-1.67Zm-2.86,5.5c-.33-.06-.85-.43-.86-.67-.01-.34.29-.87.6-1.02.58-.27,1.26-.31,1.97-.46.09,1.66-.47,2.36-1.71,2.15Z"/>
  <path class="cls-1" d="m42.34,126.26c-2.13.03-3.57,1.52-3.56,3.7,0,2.19,1.44,3.63,3.61,3.63s3.59-1.43,3.6-3.63c.01-2.24-1.46-3.73-3.65-3.71Zm.96,5.58c-.7.7-2.02.34-2.33-.62-.21-.63-.22-1.37-.16-2.04.09-.91.67-1.45,1.62-1.45.88,0,1.45.61,1.59,1.63.03.21.03.42.05.63.06.03.12.06.17.09-.3.6-.49,1.31-.94,1.76Z"/>
  <path class="cls-1" d="m72.07,126.26c-2.14,0-3.56,1.45-3.57,3.66,0,2.23,1.37,3.66,3.54,3.67,2.18,0,3.62-1.41,3.65-3.59.03-2.23-1.43-3.75-3.62-3.75Zm1.2,5.38c-.54.61-1.34.77-1.89.33-.56-.44-.83-1.24-1.34-2.05.52-.78.81-1.56,1.37-1.99.64-.49,1.42-.22,1.93.45.62.81.57,2.54-.08,3.27Z"/>
  <path class="cls-1" d="m21.06,126.26c-2.15,0-3.56,1.46-3.56,3.67,0,2.23,1.38,3.65,3.55,3.66,2.18,0,3.61-1.41,3.63-3.6.02-2.25-1.43-3.74-3.62-3.74Zm1.23,5.29c-.43.37-1.23.61-1.77.48-1.01-.25-1.11-1.22-1.12-2.21.03-.88.21-1.86,1.31-2,.53-.07,1.3.29,1.67.7.64.71.57,2.46-.1,3.03Z"/>
  <path class="cls-1" d="m79.58,126.65c-.23.14-.45.32-.7.49-.34-1.17-1.18-.58-1.89-.67v6.86h1.88c0-1.41-.05-2.73.01-4.05.05-1.15.86-1.74,1.81-1.43.81.26.84.96.86,1.62.03,1.28,0,2.57,0,3.86h1.88c0-1.65.09-3.22-.02-4.78-.14-2.01-2.1-2.93-3.84-1.89Z"/>
  <path class="cls-1" d="m59.2,21.95h2.58v-9.78h-2.58v9.78Z"/>
  <path class="cls-1" d="m49.89,21.95v-9.78h-2.55v9.78h2.55Z"/>
  <path class="cls-1" d="m62.52,131.38c-.12-1.19-.05-2.41-.05-3.62.49-.03.84-.05,1.28-.07v-1.2c-.45-.03-.82-.05-1.32-.08v-1.98h-1.83c-.04.69-.09,1.33-.13,1.95-.42.07-.75.13-1.13.19.02.4.03.73.05,1.09.39.05.72.1,1.15.16,0,1.37,0,2.69,0,4.01,0,.97.48,1.51,1.43,1.6.58.05,1.16.01,1.79.01v-1.13c-.54-.39-1.2-.63-1.24-.93Z"/>
  <path class="cls-1" d="m49.07,127.21c-.03-.17-.08-.45-.12-.69h-1.69v6.85h1.83c0-1.09-.03-2.1,0-3.1.05-1.58.6-2.12,2.15-2.21.13,0,.25-.05.45-.1-.03-.58-.05-1.12-.09-1.99-1,.49-1.77.87-2.53,1.24Z"/>
  <path class="cls-1" d="m27.59,126.5h-1.63v6.82h1.85c0-.85,0-1.61,0-2.38,0-2.37.21-2.62,2.49-2.98v-1.97c-.98.47-1.79.85-2.58,1.23-.04-.2-.08-.46-.13-.72Z"/>
  <path class="cls-1" d="m65.33,133.32h1.75v-6.84h-1.75v6.84Z"/>
  <path class="cls-1" d="m61.76,8.39h-2.6v2.12h2.6v-2.12Z"/>
  <path class="cls-1" d="m49.9,8.43h-2.57v2.09h2.57v-2.09Z"/>
  <path class="cls-1" d="m65.32,123.98v1.35h1.75c.26-1.64-.03-1.86-1.75-1.35Z"/>
  <path class="cls-1" d="m52.17,87.97c6.78-.2,11.61-5.51,11.64-12.29.03-5.21-2.63-8.79-7.58-10.25-.17-.05-.33-.13-.62-.25,3.8-1.73,5.87-4.51,6.35-8.51.64-5.27-2.72-10.16-7.91-11.21-1.84-.37-3.75-.5-5.63-.52-5.84-.07-11.68-.04-17.52-.04-.33,0-.67,0-1.01,0v43.12c7.51,0,14.9.17,22.27-.05Zm-16.53-38.19c.23-.02.43-.05.63-.05,4.09,0,8.18-.05,12.27.06,1.44.04,2.91.36,4.29.8,1.67.53,2.8,1.8,3.1,3.54.24,1.39.35,2.87.13,4.25-.42,2.72-2.47,4.48-5.74,4.78-3.09.28-6.21.22-9.32.27-1.77.03-3.55,0-5.37,0v-13.66Zm0,33.38v-14.7c.07-.05.13-.13.18-.13,4.92.02,9.85.05,14.77.1.55,0,1.11.12,1.66.24,4.11.85,6.06,3.42,5.81,7.64-.22,3.7-2.92,6.67-6.71,6.81-5.2.19-10.41.05-15.72.05Z"/>
  <path class="cls-1" d="m85.28,96.31c-1.81,0-3.39,1.46-3.39,3.66s1.58,3.66,3.39,3.66,3.39-1.46,3.39-3.66-1.58-3.66-3.39-3.66Zm0,6.85c-1.54,0-2.9-1.24-2.9-3.19s1.36-3.19,2.9-3.19,2.91,1.24,2.91,3.19-1.37,3.19-2.91,3.19Z"/>
  <path class="cls-1" d="m86.62,99.08c0-.63-.44-1.05-1.32-1.05h-1.33v3.79h.67v-1.56h.84c.35,0,.47.16.47.45v1.11h.67v-1.15c0-.33-.1-.59-.44-.73v-.02c.33-.16.44-.44.44-.85Zm-1.28.63h-.71v-1.07h.66c.51,0,.65.2.65.53,0,.36-.16.54-.61.54Z"/>
</svg>