<?xml version="1.0" encoding="UTF-8"?>
<svg id="Capa_1" data-name="Capa 1" xmlns="http://www.w3.org/2000/svg" viewBox="0 0 85.94 86.71">
  <defs>
    <style>
      .cls-1 {
        fill: #fff;
        stroke-width: 0px;
      }
    </style>
  </defs>
  <path class="cls-1" d="m61.77,34.62c.7,0,1.41,0,2.11,0,.61,0,.95-.28.96-.76,0-.49-.33-.78-.93-.78-1.42,0-2.84,0-4.27,0-.57,0-.9.29-.91.76,0,.49.33.78.93.79.7,0,1.41,0,2.11,0Z"/>
  <path class="cls-1" d="m68.44,22.08c0-.84-.23-1.05-1.08-1.06-3.19,0-6.38,0-9.57,0h-.61c0-.52-.02-1,0-1.47.03-.47-.11-.83-.51-1.1h-27.18c-.37.31-.48.7-.45,1.18.03.45,0,.91,0,1.39h-.65c-3.05,0-6.11,0-9.16,0-.87,0-1.09.22-1.09,1.09,0,6.54,0,13.07,0,19.61,0,.89.22,1.11,1.14,1.11,3.04,0,6.07,0,9.11,0h.66v.62c0,1.6,0,3.19,0,4.79,0,.74.26.99.98,1,.68,0,1.37,0,2.05,0-.08.42-.18.8-.23,1.18-.3,2.54-.51,5.09-.92,7.61-.45,2.83.43,5.05,2.63,6.81.68.55,1.34,1.13,1.98,1.72.16.15.29.42.3.64.03,1.03,0,2.06.02,3.09,0,.57.28.86.85.87.58.01,1.17,0,1.75,0h0s6.81,0,6.81,0h0c2.15,0,4.29,0,6.44,0,.75,0,1.01-.27,1.01-1.03,0-1.03,0-2.06,0-3.09,0-.34.05-.69.14-1.01.62-2.26,1.26-4.52,1.9-6.78.66-2.3.89-4.64.56-7.02-.14-.99-.36-1.98-.55-3,.39,0,.79,0,1.18,0,1,0,1.21-.2,1.21-1.2,0-7.22,0-14.44,0-21.67v-.64h9.68v15.56h-.59c-1.34,0-2.68,0-4.01,0-.75,0-1.51,0-2.26,0-.45.01-.7.29-.73.72-.03.41.21.68.61.78.16.04.34.04.51.04,2.32,0,4.63,0,6.95,0,.87,0,1.1-.23,1.1-1.09,0-6.55,0-13.11,0-19.66Zm-39.42,19.17h-9.3v-15.53h9.3v15.53Zm0-17.12h-9.29v-1.52h9.29v1.52Zm24.38,34.29c-.67,2.43-1.36,4.85-2.03,7.27-.11.41-.16.84-.17,1.26-.03.87,0,1.74,0,2.66h-.61c-1.77,0-3.54,0-5.31,0h0s-6.81,0-6.81,0h0c-.35,0-.69,0-1.06,0,0-.92-.04-1.78.01-2.63.04-.66-.21-1.09-.7-1.49-.98-.81-1.94-1.64-2.86-2.51-1.08-1.04-1.65-2.31-1.47-3.84.33-2.9.67-5.79,1.01-8.68.1-.82.76-1.31,1.52-1.12.6.15.94.62.94,1.36,0,1.96,0,3.91,0,5.87,0,.15,0,.31,0,.46.03.44.26.7.7.75.41.05.76-.24.83-.67.03-.18.02-.38.02-.56,0-6.66,0-13.31,0-19.97,0-.19,0-.38,0-.57.06-.72.68-1.21,1.4-1.1.68.1,1.05.61,1.05,1.47,0,3.02,0,6.04,0,9.06,0,.21,0,.41.02.62.05.41.29.67.7.7.41.03.7-.2.77-.61.06-.3.05-.61.06-.92.03-.76.53-1.24,1.33-1.27.82-.03,1.38.43,1.44,1.21.02.32,0,.65,0,.98,0,.63.22.91.7.94.49.03.72-.24.86-.82.08-.33.25-.69.5-.9.48-.4,1.06-.29,1.6-.05.48.22.64.64.64,1.14,0,.19,0,.38,0,.57.02.52.27.8.72.82.46.02.73-.23.82-.74.13-.78.5-1.16,1.17-1.19.69-.03,1.13.33,1.33,1.1.3,1.14.6,2.29.89,3.43.67,2.66.69,5.33-.04,7.98Zm2.2-10.75h-1.27c-.09-.34-.21-.69-.28-1.05-.46-2.13-2.84-2.8-4.27-1.84-.04.03-.09.03-.14.05-1.34-1.36-2.53-1.6-4.17-.84-.38-.69-.94-1.19-1.71-1.44-.77-.25-1.52-.2-2.31.11v-5.75c.13,0,.28-.03.43-.03,2.09,0,4.19,0,6.28,0,.77,0,1,.23,1,1.02,0,.36,0,.72,0,1.08-.01.6-.27.88-.89.88-1.2,0-2.4,0-3.6,0-.15,0-.31,0-.46,0-.46.03-.76.32-.78.73-.02.42.3.79.77.8,1.48.02,2.95.05,4.43-.02,1.21-.06,2.06-1.06,2.08-2.27,0-.5.01-1,0-1.49-.03-1.3-.98-2.26-2.3-2.27-2.21-.01-4.43-.01-6.64,0-.34,0-.5-.09-.65-.41-.55-1.2-1.82-1.81-3.11-1.53-1.22.26-2.14,1.38-2.14,2.68-.01,3.64,0,7.27,0,10.91v.66h-5.25v-21.93h24.98v21.94Zm0-23.55h-24.97v-4.08h24.97v4.08Zm11.26,0h-9.67v-1.51h9.67v1.51Z"/>
  <path class="cls-1" d="m63.99,31.3c.53,0,.85-.31.85-.76,0-.48-.31-.77-.88-.77-.72,0-1.44,0-2.16,0-.74,0-1.47,0-2.21,0-.54,0-.85.29-.86.75,0,.45.31.78.83.79,1.47.02,2.95.01,4.42,0Z"/>
  <path class="cls-1" d="m33.97,32.25c1.94,0,3.87,0,5.81,0,.65,0,.93-.29.93-.95,0-1.04,0-2.09,0-3.13,0-.7-.27-.97-.96-.97-.96,0-1.92,0-2.88,0-.98,0-1.95,0-2.93,0-.59,0-.86.26-.87.84-.01,1.11-.01,2.23,0,3.34,0,.6.29.87.89.88Zm.67-3.48h4.49v1.92h-4.49v-1.92Z"/>
  <path class="cls-1" d="m44.02,30.49c2.57,0,5.15,0,7.72,0,.63,0,1-.3.99-.79,0-.47-.36-.75-.97-.75-1.29,0-2.57,0-3.86,0s-2.57,0-3.86,0c-.68,0-1.06.28-1.05.78.01.48.38.76,1.02.76Z"/>
  <path class="cls-1" d="m22.14,31.3c1.46.01,2.91.01,4.37,0,.55,0,.88-.34.86-.81-.02-.46-.33-.72-.87-.73-.72,0-1.44,0-2.16,0-.72,0-1.44,0-2.16,0-.58,0-.91.28-.92.74-.01.47.32.79.88.8Z"/>
  <path class="cls-1" d="m22.15,34.62c.72,0,1.44,0,2.16,0s1.44,0,2.16,0c.56,0,.9-.3.91-.76,0-.47-.33-.78-.88-.78-1.44,0-2.88,0-4.32,0-.56,0-.9.3-.91.76,0,.47.33.77.89.78Z"/>
  <path class="cls-1" d="m38.86,22.89c2.83,0,5.66,0,8.48,0,.66,0,1-.27,1-.77,0-.5-.34-.78-.99-.78-1.41,0-2.81,0-4.22,0-1.42,0-2.84,0-4.27,0-.64,0-1.01.28-1.01.76,0,.49.36.78,1,.78Z"/>
</svg>