<?xml version="1.0" encoding="UTF-8"?>
<svg id="Capa_1" data-name="Capa 1" xmlns="http://www.w3.org/2000/svg" viewBox="0 0 85.94 86.71">
  <defs>
    <style>
      .cls-1 {
        opacity: .2;
      }

      .cls-1, .cls-2, .cls-3, .cls-4, .cls-5, .cls-6, .cls-7, .cls-8, .cls-9, .cls-10, .cls-11, .cls-12, .cls-13, .cls-14, .cls-15, .cls-16, .cls-17, .cls-18, .cls-19, .cls-20, .cls-21, .cls-22, .cls-23, .cls-24, .cls-25, .cls-26, .cls-27, .cls-28, .cls-29, .cls-30, .cls-31, .cls-32, .cls-33, .cls-34, .cls-35, .cls-36, .cls-37, .cls-38, .cls-39, .cls-40, .cls-41, .cls-42, .cls-43, .cls-44, .cls-45, .cls-46, .cls-47, .cls-48 {
        stroke-width: 0px;
      }

      .cls-1, .cls-2, .cls-3, .cls-4, .cls-5, .cls-6, .cls-7, .cls-8, .cls-9, .cls-10, .cls-11, .cls-12, .cls-13, .cls-14, .cls-15, .cls-16, .cls-17, .cls-18, .cls-19, .cls-20, .cls-22, .cls-23, .cls-24, .cls-25, .cls-26, .cls-27, .cls-28, .cls-29, .cls-30, .cls-31, .cls-32, .cls-33, .cls-34, .cls-35, .cls-36, .cls-37, .cls-38, .cls-39, .cls-40, .cls-41, .cls-42, .cls-43, .cls-44, .cls-45, .cls-46, .cls-47, .cls-48 {
        fill: #008069;
      }

      .cls-2 {
        opacity: .51;
      }

      .cls-3 {
        opacity: .23;
      }

      .cls-4 {
        opacity: .27;
      }

      .cls-5 {
        opacity: .98;
      }

      .cls-6 {
        opacity: .53;
      }

      .cls-7 {
        opacity: .79;
      }

      .cls-8 {
        opacity: .81;
      }

      .cls-9 {
        opacity: .86;
      }

      .cls-11 {
        opacity: .96;
      }

      .cls-12 {
        opacity: .54;
      }

      .cls-13 {
        opacity: .21;
      }

      .cls-14 {
        opacity: .68;
      }

      .cls-15 {
        opacity: .77;
      }

      .cls-16 {
        opacity: .92;
      }

      .cls-17 {
        opacity: .85;
      }

      .cls-18 {
        opacity: .31;
      }

      .cls-19 {
        opacity: .49;
      }

      .cls-20 {
        opacity: .25;
      }

      .cls-21 {
        fill: #fff;
      }

      .cls-22 {
        opacity: .94;
      }

      .cls-23 {
        opacity: .9;
      }

      .cls-24 {
        opacity: .43;
      }

      .cls-25 {
        opacity: .56;
      }

      .cls-26 {
        opacity: .8;
      }

      .cls-27 {
        opacity: .69;
      }

      .cls-28 {
        opacity: .24;
      }

      .cls-29 {
        opacity: .37;
      }

      .cls-30 {
        opacity: .88;
      }

      .cls-31 {
        opacity: .7;
      }

      .cls-32 {
        opacity: .72;
      }

      .cls-33 {
        opacity: .28;
      }

      .cls-34 {
        opacity: .71;
      }

      .cls-35 {
        opacity: .47;
      }

      .cls-36 {
        opacity: .22;
      }

      .cls-37 {
        opacity: .26;
      }

      .cls-38 {
        opacity: .61;
      }

      .cls-39 {
        opacity: .63;
      }

      .cls-40 {
        opacity: .58;
      }

      .cls-41 {
        opacity: .29;
      }

      .cls-42 {
        opacity: .33;
      }

      .cls-43 {
        opacity: .38;
      }

      .cls-44 {
        opacity: .89;
      }

      .cls-45 {
        opacity: .93;
      }

      .cls-46 {
        opacity: .52;
      }

      .cls-47 {
        opacity: .48;
      }

      .cls-48 {
        opacity: .46;
      }
    </style>
  </defs>
  <g>
    <path class="cls-10" d="m29.13,6.5c-.54-1.58-3.74-.25-5.45,1-1.71,1.24-2.87,3.37-1.74,3.92s2.11-1.54,3.66-2.3c1.56-.76,4.1-.93,3.52-2.61Z"/>
    <path class="cls-10" d="m19.58,13.93c-.78.53-.88,2.62-.07,2.68.81.07,1.45-1.13,1.61-1.91.17-.78-.5-1.48-1.54-.78Z"/>
    <path class="cls-10" d="m49.59,79.78c.17,2.45,6.23.78,11.87-3,5.63-3.77,8.14-6.4,6.54-7.8-1.6-1.4-4.64,2.23-8.14,5.15-4.46,3.72-10.48,2.74-10.27,5.65Z"/>
    <path class="cls-10" d="m71.91,63.51c-1.85-.19-2.26,3.18-.37,3.18s1.93-3.02.37-3.18Z"/>
    <g>
      <path class="cls-10" d="m76.24,60.26c.12,0,.25.02.36,0,.24-.05.47-.11.69-.18.71-.33,1.33-.91,1.79-1.52.06-.08.12-.16.17-.24.18-.43-.07-.94-.53-1.02-.18-.03-.34-.03-.5,0-.3.27-.62.52-.99.68-.08.06-.16.12-.25.16-.42.2-.79-.07-.73-.53.03-.2.1-.41.21-.58.17-.26.39-.5.6-.73.25-.28.29-.48.06-.76-.26-.32-.55-.63-.87-.88-.41-.32-.88-.36-1.36-.14-.23.11-.45.22-.67.34-.3.16-.53.38-.65.71-.06.16-.15.31-.22.47-.36.81-.49,1.63-.08,2.46.03.07.07.14.11.2.07.07.14.14.21.21.33.3.68.63,1.03.94.51.23,1.05.4,1.62.39Z"/>
      <path class="cls-22" d="m76.52,60.26c.05-.07.06-.11.09-.13.02-.02.07,0,.1,0,0,.03,0,.08-.02.09-.04.02-.1.03-.18.05Z"/>
      <path class="cls-43" d="m76.18,54.83c.08,0,.11.05.1.09-.01.03-.06.05-.1.08-.01,0-.02-.01-.03-.02,0-.05.02-.09.03-.14Z"/>
      <path class="cls-48" d="m77.39,58.24s.09-.01.13,0c.02,0,.04.03.06.05-.02.01-.04.04-.06.04-.04,0-.09-.03-.13-.04,0-.01,0-.03,0-.04Z"/>
      <path class="cls-4" d="m76.18,54.7s.08-.03.13-.05c.02.05.05.1-.02.12-.05.02-.09,0-.11-.07Z"/>
      <path class="cls-3" d="m78.91,57.55c-.03-.06-.08-.1-.02-.15.02-.01.06,0,.07,0,.04.06.01.1-.05.14Z"/>
      <path class="cls-4" d="m77.54,58.91s-.05.06-.07.07c-.05.01-.08-.02-.07-.07,0-.02.03-.05.05-.05.03,0,.05.03.09.05Z"/>
      <path class="cls-37" d="m78.05,57.89s.06.05.07.08c.01.04,0,.08-.06.08-.02,0-.06-.03-.06-.05,0-.03.03-.06.05-.11Z"/>
      <path class="cls-12" d="m75.97,55.18c-.1.02-.1-.06-.17-.09.11-.04.14.01.17.09Z"/>
      <path class="cls-9" d="m75.33,56.6c.06.04.08.09.04.14,0,0-.04,0-.05,0-.06-.04-.04-.09.01-.14Z"/>
      <path class="cls-7" d="m75.85,58.56c-.08.05-.11-.02-.16-.05.09-.05.12-.02.16.05Z"/>
      <path class="cls-16" d="m77.11,58.89v.15q-.07-.07,0-.15Z"/>
      <path class="cls-34" d="m76.01,58.82s-.05.04-.07.04c-.02,0-.03-.02-.05-.04.02-.01.03-.04.05-.04.02,0,.04.02.07.04Z"/>
      <path class="cls-45" d="m74.28,56.89s-.05.04-.05.04c-.02-.02-.03-.04-.05-.06.01-.01.03-.03.04-.03.02,0,.03.03.06.05Z"/>
      <path class="cls-1" d="m76.26,58.62s.05-.05.07-.07c.01,0,.02.02.03.03-.02.03-.04.05-.06.08-.01-.01-.03-.02-.04-.04Z"/>
      <path class="cls-33" d="m78.59,58.45s0,.06-.02.11c-.06-.05-.06-.08-.02-.11h.04Z"/>
      <path class="cls-31" d="m77.9,59.24s-.05.04-.05.04c-.02,0-.03-.03-.05-.04,0,0,.02-.03.03-.03.02,0,.04.01.08.03Z"/>
      <path class="cls-42" d="m74.73,58.1s0-.07,0-.1c.01,0,.03,0,.04,0,0,.03,0,.07,0,.1-.01,0-.03,0-.04,0Z"/>
      <path class="cls-23" d="m73.79,57.97l-.08-.03s0-.02,0-.03c.03,0,.05.01.08.02v.04Z"/>
      <path class="cls-4" d="m76.06,58.46s.05,0,.07,0c0,.01,0,.03,0,.04l-.07-.02s0-.02,0-.03Z"/>
      <path class="cls-46" d="m75.49,54.46s.02.04.03.06c-.01,0-.03.02-.03.02-.02-.01-.03-.03-.04-.05.01,0,.02-.02.04-.03Z"/>
      <path class="cls-11" d="m75.29,58.04s-.05,0-.06,0c-.01,0-.01-.03-.02-.04.02,0,.04,0,.05,0,0,0,.01.02.02.04Z"/>
      <path class="cls-38" d="m76.86,56.65s-.04.03-.06.05c0,0-.01-.01-.02-.02.02-.02.04-.04.05-.06,0,0,.02.02.03.03Z"/>
      <path class="cls-24" d="m74.63,59.41s-.04.02-.06.02c0,0-.03-.02-.02-.03,0-.01.02-.03.03-.04.01,0,.03.02.05.04Z"/>
      <path class="cls-42" d="m75.43,57.81s-.04.02-.05.01c0,0-.02-.03-.02-.03.01-.01.03-.02.04-.02,0,0,.01.02.03.04Z"/>
      <path class="cls-40" d="m79.01,57.94l-.04-.07s.02,0,.02-.01c.01.02.03.05.04.07,0,0-.02,0-.02.01Z"/>
      <path class="cls-3" d="m74.53,55.67s.03.04.03.05c0,.01-.02.03-.03.04-.01-.01-.03-.02-.04-.04,0-.01.02-.03.03-.05Z"/>
      <path class="cls-10" d="m76.8,55.89s-.03.02-.05.03c0,0-.02-.02-.03-.02.02-.01.03-.03.05-.04,0,.01.02.02.03.04Z"/>
      <path class="cls-10" d="m74.92,55.23s-.02.04-.03.04c-.02,0-.03-.01-.04-.02,0,0,.01-.03.02-.03.01,0,.03,0,.05.01Z"/>
      <path class="cls-25" d="m74.95,55.34s.02.03.02.04c0,0-.02.02-.03.03,0,0-.02-.02-.01-.02,0-.01,0-.02.02-.04Z"/>
      <path class="cls-22" d="m78.61,57.46s-.04.02-.06.03c0,0,0-.02-.01-.02.02-.01.04-.02.06-.03v.02Z"/>
      <path class="cls-6" d="m74.95,58.99s-.02.02-.03.03c0-.01-.02-.02-.02-.03,0,0,.01-.02.01-.02.01,0,.02.01.04.02Z"/>
      <path class="cls-28" d="m76.29,55.81s-.04.01-.06.02c0,0,0-.01,0-.02.02,0,.04-.02.05-.03,0,0,.01.02.02.03Z"/>
      <path class="cls-14" d="m77.21,59.83s-.05,0-.08,0c0,0,0-.02,0-.02.03,0,.05-.01.08-.02v.03Z"/>
      <path class="cls-46" d="m74.75,54.57s.02.04.02.04c-.01.01-.03.02-.04.03,0-.01-.01-.03-.01-.04,0-.01.02-.02.04-.03Z"/>
      <path class="cls-30" d="m74.88,57.77s-.02.02-.03.03c-.01-.01-.02-.02-.03-.04,0,0,.02-.02.03-.02,0,0,.02.02.03.03Z"/>
      <path class="cls-17" d="m76.29,59.13s-.02.01-.04.02c0,0-.01-.01-.02-.02.01,0,.02-.02.03-.02,0,0,0,.01.02.02Z"/>
      <path class="cls-2" d="m77.47,59.26s-.01.02-.02.02c-.01,0-.02-.01-.03-.02,0,0,0-.02.01-.02.01,0,.02,0,.03.01Z"/>
      <path class="cls-29" d="m73.99,54.79s0,.02,0,.04c0,0-.01,0-.02.01,0-.01-.01-.02-.01-.03,0,0,.01,0,.02-.02Z"/>
      <path class="cls-15" d="m76.96,55.89s-.01.01-.02.02c0,0-.02-.02-.02-.02,0,0,.02-.01.02-.01,0,0,.01.01.02.02Z"/>
      <path class="cls-26" d="m74.75,55.86s-.02.02-.03.03c0,0-.02,0-.03,0,0-.01,0-.03.01-.03.01,0,.02,0,.05.01Z"/>
    </g>
    <g>
      <path class="cls-10" d="m16.71,25.03s-.03,0-.05,0c-.13.05-.27.11-.4.14-.05.01-.1.01-.14,0-.2.1-.36.25-.5.42-.21.25-.4.52-.58.79-.15.23-.28.48-.47.79-.05-.34-.1-.6-.12-.87,0-.06.06-.13.11-.19.12-.14.25-.27.36-.42.54-.78.94-1.63,1.2-2.53.06-.22.11-.45.1-.68,0-.33-.22-.49-.55-.44-.29.04-.52.19-.69.41-.24.32-.45.67-.67,1-.04.06-.08.11-.14.2-.05-.49-.08-.93-.14-1.36-.05-.31-.1-.63-.21-.92-.13-.34-.48-.36-.7-.06-.05.08-.09.18-.1.27-.03.19-.05.39-.07.59-.03.31-.05.62-.09.99-.12-.13-.18-.21-.26-.28-.23-.21-.46-.44-.71-.62-.34-.23-.71-.28-1.07-.04-.23.15-.32.32-.23.58.08.26.19.51.31.75.46.91,1.19,1.58,1.97,2.2.09.07.19.16.21.26.06.31.09.62.13.93-.02,0-.04.02-.06.02-.06-.06-.11-.13-.18-.19-.2-.18-.39-.39-.61-.54-.29-.21-.61-.38-.91-.57-.28-.17-.54-.17-.79.02-.24.19-.2.43-.11.66.17.39.35.78.56,1.14.37.62.85,1.13,1.53,1.43.24.1.46.24.7.36.19.09.29.24.34.45.05.22.12.44.22.65.14.29.4.36.68.19.22-.13.31-.33.3-.58-.01-.29-.04-.59-.07-.88-.01-.14.02-.24.11-.36.47-.57.95-1.15,1.39-1.74.25-.33.45-.7.65-1.06.08-.16.13-.35.14-.53.02-.25-.15-.41-.4-.42Z"/>
      <path class="cls-44" d="m11.37,23.12s-.07.06-.1.07c0,0-.04-.03-.05-.05,0-.04.02-.08.06-.08.02,0,.04.03.08.06Z"/>
      <path class="cls-23" d="m14.18,22.32c.02.09,0,.13-.08.13q0-.08.08-.13Z"/>
      <path class="cls-5" d="m13.03,27.62q-.05-.08-.04-.18c.08.04.09.09.04.18Z"/>
      <path class="cls-4" d="m16.38,25.67c-.08,0-.1-.04-.09-.09,0-.01.04-.03.05-.03.06.02.06.06.04.12Z"/>
      <path class="cls-41" d="m13.45,25.29s-.05.04-.06.04c-.02,0-.04-.03-.04-.04,0-.02.03-.04.04-.04.01,0,.03.02.06.04Z"/>
      <path class="cls-36" d="m15.18,25.2s-.06.03-.07.03c-.02,0-.03-.03-.03-.05,0,0,.03-.03.04-.03.02,0,.03.03.06.05Z"/>
      <path class="cls-27" d="m16.12,22.83s-.02-.04-.03-.06c0,0,.02,0,.02-.01,0,.02.02.04.03.06,0,0-.02,0-.03.01Z"/>
      <path class="cls-44" d="m13.06,26.27s.03.04.03.05c0,.01-.03.02-.04.03,0,0-.03-.02-.02-.03,0-.01.02-.03.04-.05Z"/>
      <path class="cls-19" d="m11.82,22.8s-.05,0-.07,0c0,0,0-.02,0-.02.02,0,.05,0,.07,0,0,.01,0,.02,0,.04Z"/>
      <path class="cls-25" d="m13.09,26.73s.03.05.03.06c0,.01-.02.02-.03.04,0-.01-.02-.02-.03-.03,0-.02,0-.03.02-.07Z"/>
      <path class="cls-16" d="m11.61,27.04s.02.04.01.05c0,.01-.02.03-.03.04-.01,0-.03-.02-.04-.03,0-.01.01-.03.02-.04.01,0,.02-.01.03-.02Z"/>
      <path class="cls-11" d="m13.33,23.6c.02.05.03.07.03.08,0,0-.02.02-.03.02,0-.01-.02-.03-.03-.04,0-.01,0-.03.02-.06Z"/>
      <path class="cls-8" d="m15.52,24.3s.03.03.03.04c0,.01-.02.02-.04.03,0,0-.03-.02-.02-.03,0-.01.02-.02.03-.04Z"/>
      <path class="cls-48" d="m16.72,26.69s-.04.02-.05.02c0,0-.01-.02-.02-.03.01,0,.03-.02.04-.02,0,0,.01.02.03.04Z"/>
      <path class="cls-28" d="m15.53,24.95s.01.03.01.04c0,0-.02.01-.04.01,0,0-.01-.02-.01-.02,0,0,.02-.02.03-.03Z"/>
      <path class="cls-27" d="m15.17,27.23s-.03.03-.04.03c-.01,0-.02-.01-.04-.02,0,0,.01-.03.02-.03.01,0,.03,0,.05.02Z"/>
      <path class="cls-6" d="m12.85,28.25s.01.02.02.03c0,0-.02.02-.03.02,0,0-.01-.02-.02-.03,0,0,.01,0,.03-.02Z"/>
      <path class="cls-10" d="m13.93,23.37s.01.02.02.03c0,0-.01.01-.02.02,0-.01-.02-.02-.02-.03,0,0,.01,0,.02-.02Z"/>
      <path class="cls-29" d="m12.15,27.12s-.02.01-.03.02c0-.01,0-.02-.01-.03.01,0,.02,0,.04-.01,0,0,0,.01.01.03Z"/>
      <path class="cls-47" d="m13.52,23.02s-.01.01-.02.02c0,0-.01-.02-.02-.02,0,0,.02-.01.02-.01,0,0,.01.01.02.02Z"/>
      <path class="cls-1" d="m13.4,24.93s-.05.05-.07.08c-.02-.03-.03-.05-.05-.08h.12Z"/>
      <path class="cls-9" d="m14.26,25.19c.05-.05.1-.09.15-.14.01,0,.02.02.03.02-.02.04-.04.09-.07.13,0,.01-.03.02-.05.02-.02,0-.03-.02-.06-.04Z"/>
      <path class="cls-28" d="m14.28,26.76c.05-.01.11-.03.12.05,0,.02-.03.06-.04.06-.07,0-.1-.03-.08-.11Z"/>
      <path class="cls-18" d="m13.95,29.24s-.06-.07-.06-.09c0-.02.04-.06.06-.06.02,0,.06.04.06.06,0,.02-.03.05-.06.09Z"/>
      <path class="cls-20" d="m15.59,27.71s-.06.04-.09.04c-.01,0-.04-.04-.04-.06,0-.05.03-.07.08-.06.03,0,.05.02.07.04,0,.01-.01.03-.02.04Z"/>
      <path class="cls-42" d="m15.71,26.25s0-.05,0-.08c.02,0,.03,0,.05,0,0,.03,0,.05,0,.08-.01,0-.03,0-.04,0Z"/>
      <path class="cls-32" d="m12.4,28.03s.06-.02.08-.02c.02,0,.03.01.06.02-.04.05-.07.05-.13,0Z"/>
      <path class="cls-31" d="m16.84,25.73s-.05.03-.06.02c-.01,0-.02-.03-.02-.04,0,0,.02-.02.03-.02.01,0,.03.02.05.04Z"/>
      <path class="cls-38" d="m14.62,27.38s0-.04,0-.07c0,0,.02,0,.02,0v.06s-.01,0-.02,0Z"/>
      <path class="cls-35" d="m11.89,27.03s-.02-.03-.02-.04c0-.01.02-.02.03-.03,0,0,.02.02.02.03,0,.01-.01.02-.03.04Z"/>
      <path class="cls-13" d="m14.26,29.06s-.02-.02-.02-.04c0,0,.01-.01.02-.02,0,.01.02.02.02.03,0,0-.01.01-.02.02Z"/>
      <path class="cls-39" d="m13.18,27.53s-.03,0-.03,0c0-.01,0-.02-.01-.04,0,0,.02,0,.02,0,0,0,.01.02.02.03Z"/>
      <path class="cls-29" d="m12.85,25.17s-.02,0-.02,0c0-.01,0-.02,0-.03,0,0,.02,0,.02,0,0,0,0,.02,0,.02Z"/>
      <path class="cls-1" d="m13.4,24.93s-.05.05-.07.08c-.02-.03-.03-.05-.05-.08h.12Z"/>
      <path class="cls-9" d="m14.26,25.19c.05-.05.1-.09.15-.14.01,0,.02.02.03.02-.02.04-.04.09-.07.13,0,.01-.03.02-.05.02-.02,0-.03-.02-.06-.04Z"/>
      <path class="cls-28" d="m14.28,26.76c.05-.01.11-.03.12.05,0,.02-.03.06-.04.06-.07,0-.1-.03-.08-.11Z"/>
      <path class="cls-18" d="m13.95,29.24s-.06-.07-.06-.09c0-.02.04-.06.06-.06.02,0,.06.04.06.06,0,.02-.03.05-.06.09Z"/>
      <path class="cls-20" d="m15.59,27.71s-.06.04-.09.04c-.01,0-.04-.04-.04-.06,0-.05.03-.07.08-.06.03,0,.05.02.07.04,0,.01-.01.03-.02.04Z"/>
      <path class="cls-42" d="m15.71,26.25s0-.05,0-.08c.02,0,.03,0,.05,0,0,.03,0,.05,0,.08-.01,0-.03,0-.04,0Z"/>
      <path class="cls-32" d="m12.4,28.03s.06-.02.08-.02c.02,0,.03.01.06.02-.04.05-.07.05-.13,0Z"/>
      <path class="cls-31" d="m16.84,25.73s-.05.03-.06.02c-.01,0-.02-.03-.02-.04,0,0,.02-.02.03-.02.01,0,.03.02.05.04Z"/>
      <path class="cls-38" d="m14.62,27.38s0-.04,0-.07c0,0,.02,0,.02,0v.06s-.01,0-.02,0Z"/>
      <path class="cls-35" d="m11.89,27.03s-.02-.03-.02-.04c0-.01.02-.02.03-.03,0,0,.02.02.02.03,0,.01-.01.02-.03.04Z"/>
      <path class="cls-13" d="m14.26,29.06s-.02-.02-.02-.04c0,0,.01-.01.02-.02,0,.01.02.02.02.03,0,0-.01.01-.02.02Z"/>
      <path class="cls-39" d="m13.18,27.53s-.03,0-.03,0c0-.01,0-.02-.01-.04,0,0,.02,0,.02,0,0,0,.01.02.02.03Z"/>
      <path class="cls-29" d="m12.85,25.17s-.02,0-.02,0c0-.01,0-.02,0-.03,0,0,.02,0,.02,0,0,0,0,.02,0,.02Z"/>
    </g>
    <path class="cls-10" d="m65.49,65.03c-14.56,16.59-35.89,10.02-48.51-4.48-4.82-5.53-6.32-11.7-4.51-18.48,1.46-5.45,5.1-10.51,7.02-15.95,2.47-6.99,4.76-13.51,12.6-15.14,6.37-1.33,11.87.86,18.23,3.88,12.31,5.85,21.14,14.43,22.18,28.84.59,8.22-1.74,15.34-7.01,21.34Z"/>
  </g>
  <g>
    <path class="cls-21" d="m57.54,39.19c.53,0,1.06,0,1.59,0,.46,0,.72-.21.72-.57,0-.37-.25-.59-.7-.59-1.07,0-2.14,0-3.22,0-.43,0-.68.22-.68.57,0,.37.25.59.7.59.53,0,1.06,0,1.59,0Z"/>
    <path class="cls-21" d="m62.57,29.74c0-.63-.17-.8-.81-.8-2.41,0-4.81,0-7.22,0h-.46c0-.39-.02-.75,0-1.11.02-.35-.09-.63-.38-.83h-20.48c-.28.23-.36.53-.34.89.02.34,0,.69,0,1.05h-.49c-2.3,0-4.6,0-6.9,0-.66,0-.82.16-.82.82,0,4.93,0,9.85,0,14.78,0,.67.17.84.86.84,2.29,0,4.58,0,6.87,0h.49v.46c0,1.2,0,2.4,0,3.61,0,.56.19.75.74.75.52,0,1.03,0,1.55,0-.06.31-.14.6-.17.89-.23,1.91-.39,3.83-.69,5.73-.34,2.13.33,3.8,1.98,5.14.51.41,1.01.85,1.49,1.3.12.11.22.32.22.48.02.77,0,1.55.01,2.33,0,.43.21.65.64.65.44,0,.88,0,1.32,0h0s5.13,0,5.13,0h0c1.62,0,3.24,0,4.85,0,.56,0,.76-.2.76-.78,0-.78,0-1.55,0-2.33,0-.25.04-.52.1-.76.47-1.7.95-3.41,1.43-5.11.5-1.74.67-3.5.42-5.29-.1-.75-.27-1.49-.42-2.26.3,0,.59,0,.89,0,.76,0,.91-.15.91-.9,0-5.44,0-10.89,0-16.33v-.48h7.3v11.73h-.44c-1.01,0-2.02,0-3.03,0-.57,0-1.14,0-1.71,0-.34,0-.53.22-.55.54-.02.31.15.51.46.59.12.03.26.03.38.03,1.75,0,3.49,0,5.24,0,.66,0,.83-.17.83-.82,0-4.94,0-9.88,0-14.82Zm-29.71,14.44h-7.01v-11.7h7.01v11.7Zm0-12.9h-7v-1.14h7v1.14Zm18.38,25.84c-.5,1.83-1.03,3.65-1.53,5.48-.08.31-.12.63-.13.95-.02.66,0,1.31,0,2.01h-.46c-1.33,0-2.67,0-4,0h0s-5.13,0-5.13,0h0c-.26,0-.52,0-.8,0,0-.69-.03-1.34,0-1.98.03-.49-.16-.82-.53-1.13-.74-.61-1.46-1.23-2.15-1.89-.81-.78-1.24-1.74-1.11-2.9.25-2.18.5-4.36.76-6.54.07-.62.58-.98,1.15-.84.45.11.7.47.71,1.03,0,1.47,0,2.95,0,4.42,0,.12,0,.23,0,.35.02.33.2.53.52.57.31.04.57-.18.62-.51.02-.14.01-.28.01-.43,0-5.02,0-10.03,0-15.05,0-.14,0-.29,0-.43.05-.54.51-.91,1.05-.83.51.07.79.46.79,1.11,0,2.28,0,4.55,0,6.83,0,.16,0,.31.01.46.04.31.22.5.53.52.31.02.52-.15.58-.46.04-.23.04-.46.04-.69.02-.57.4-.93,1-.96.62-.02,1.04.33,1.08.91.02.24,0,.49,0,.74,0,.47.17.69.53.71.37.02.54-.18.65-.62.06-.25.19-.52.38-.68.37-.3.8-.22,1.21-.03.36.17.48.48.48.86,0,.14,0,.28,0,.43.02.39.2.6.55.62.34.01.55-.17.62-.56.1-.59.38-.87.88-.9.52-.03.85.25,1,.83.23.86.45,1.72.67,2.59.51,2.01.52,4.02-.03,6.02Zm1.65-8.11h-.95c-.07-.25-.16-.52-.21-.79-.35-1.6-2.14-2.11-3.22-1.38-.03.02-.07.02-.1.03-1.01-1.02-1.91-1.21-3.14-.63-.28-.52-.71-.9-1.29-1.08-.58-.19-1.14-.15-1.74.09v-4.33c.1,0,.21-.02.32-.02,1.58,0,3.16,0,4.73,0,.58,0,.75.17.76.77,0,.27,0,.54,0,.81,0,.46-.21.66-.67.66-.91,0-1.81,0-2.72,0-.12,0-.23,0-.35,0-.34.02-.57.24-.59.55-.01.32.23.6.58.6,1.11.01,2.23.04,3.34-.01.91-.04,1.55-.8,1.57-1.71,0-.37,0-.75,0-1.12-.02-.98-.74-1.71-1.73-1.71-1.67-.01-3.34,0-5,0-.26,0-.38-.07-.49-.31-.42-.91-1.37-1.36-2.34-1.15-.92.2-1.61,1.04-1.61,2.02,0,2.74,0,5.48,0,8.22v.5h-3.96v-16.53h18.82v16.54Zm0-17.75h-18.82v-3.07h18.82v3.07Zm8.49,0h-7.29v-1.13h7.29v1.13Z"/>
    <path class="cls-21" d="m59.21,36.69c.4,0,.64-.24.64-.58,0-.36-.23-.58-.66-.58-.54,0-1.08,0-1.63,0-.56,0-1.11,0-1.67,0-.4,0-.64.22-.64.56,0,.34.23.59.63.59,1.11.01,2.22.01,3.33,0Z"/>
    <path class="cls-21" d="m36.58,37.41c1.46,0,2.92,0,4.38,0,.49,0,.7-.22.7-.72,0-.79,0-1.58,0-2.36,0-.53-.2-.73-.72-.73-.72,0-1.45,0-2.17,0-.74,0-1.47,0-2.21,0-.44,0-.65.2-.65.63-.01.84,0,1.68,0,2.52,0,.45.22.66.67.66Zm.51-2.63h3.39v1.44h-3.39v-1.44Z"/>
    <path class="cls-21" d="m44.16,36.08c1.94,0,3.88,0,5.82,0,.48,0,.76-.23.75-.6,0-.36-.27-.56-.73-.57-.97,0-1.94,0-2.91,0s-1.94,0-2.91,0c-.52,0-.8.21-.79.59,0,.36.28.58.77.58Z"/>
    <path class="cls-21" d="m27.67,36.69c1.1,0,2.2,0,3.29,0,.42,0,.66-.25.65-.61-.01-.34-.25-.54-.66-.55-.54,0-1.08,0-1.63,0-.54,0-1.08,0-1.63,0-.44,0-.68.21-.69.56,0,.35.24.6.66.6Z"/>
    <path class="cls-21" d="m27.68,39.19c.54,0,1.09,0,1.63,0s1.09,0,1.63,0c.43,0,.68-.22.68-.57,0-.35-.25-.58-.67-.59-1.08,0-2.17,0-3.26,0-.42,0-.68.22-.68.57,0,.35.25.58.67.59Z"/>
    <path class="cls-21" d="m40.27,30.35c2.13,0,4.26,0,6.39,0,.49,0,.75-.2.76-.58,0-.38-.26-.58-.75-.59-1.06,0-2.12,0-3.18,0-1.07,0-2.14,0-3.22,0-.48,0-.76.21-.76.58,0,.37.27.59.76.59Z"/>
  </g>
</svg>