<?xml version="1.0" encoding="UTF-8"?>
<svg id="Capa_1" data-name="Capa 1" xmlns="http://www.w3.org/2000/svg" viewBox="0 0 85.94 86.71">
  <defs>
    <style>
      .cls-1 {
        fill: #fff;
        stroke-width: 0px;
      }
    </style>
  </defs>
  <path class="cls-1" d="m67.71,25.94c0-.3-.01-.61-.08-.91-.35-1.49-1.54-2.41-3.15-2.41-2.76,0-5.51,0-8.27,0,.03-1.17-.04-2.94-.7-3.36-.48-.56-1.12-.88-1.82-1.09h-23.75c-1.92.61-2.57,1.96-2.55,3.91.05,5.88.03,11.75.02,17.63h0v1.29c0,.39,0,.79,0,1.18,0,.02,0,.03,0,.05v4.01c-4.78.46-8.53,4.48-8.54,9.37,0,4.86,3.65,8.88,8.35,9.41-.08,2.33.53,3.46.53,3.46l.03-.07c.07.14.13.29.22.42v.1h.06c.59.78,1.53,1.23,2.65,1.23,7.37,0,14.75,0,22.12,0,2.2,0,3.46-1.26,3.46-3.46,0-5.49,0-10.99,0-16.48h0v-5.38c2.71,0,5.42,0,8.13,0,2.01,0,3.29-1.29,3.3-3.31,0-5.19,0-10.39,0-15.58ZM28.28,63.3c-4.24-.03-7.69-3.51-7.64-7.71.04-4.23,3.47-7.62,7.69-7.6,4.25.01,7.66,3.45,7.63,7.7-.03,4.22-3.47,7.64-7.68,7.61Zm26.23-2.09v.61h-.68c-5.11,0-10.22,0-15.32,0-.19,0-.37-.01-.56.01-.44.06-.78.43-.78.86,0,.44.31.81.76.87.2.03.4.03.61.03,5.11,0,10.22,0,15.32,0h.66v2.92c0,1.45-.39,1.85-1.82,1.85-6.66,0-13.33,0-19.99,0-.71,0-1.42,0-2.13,0-.65,0-1.08-.33-1.31-.93-.01-.03-.03-.06-.05-.09v-2.31c4.78-.47,8.53-4.47,8.54-9.36.01-4.86-3.69-8.91-8.42-9.42v-6.54h-.13c0-6.05,0-12.1,0-18.15,0-1.15.46-1.61,1.6-1.61,7.39,0,14.78,0,22.18,0,.57,0,1.01.17,1.36.64,0,0,.32,1.12.39,2.03-.85,0-1.71,0-2.56,0-4.13,0-8.25,0-12.38,0-1.95,0-3.24,1.3-3.25,3.25,0,5.23,0,10.45,0,15.68,0,1.97,1.3,3.27,3.28,3.27,4.9,0,9.8,0,14.7,0v2.52c0,.09,0,.19,0,.28v2.57h0c0,3.67,0,7.34,0,11.01Zm11.45-30.82c0,3.65,0,7.31,0,10.96,0,1.21-.48,1.69-1.68,1.69-8.1,0-16.2,0-24.3,0-1.21,0-1.68-.48-1.68-1.69,0-3.65,0-7.31,0-10.96,0-.17.01-.33.02-.52h27.64v.52Zm-27.63-2.37c0-.86-.04-1.68.01-2.5.04-.6.5-1,1.1-1.1.21-.04.44-.03.66-.03,8.02,0,16.03,0,24.05,0,1.37,0,1.81.44,1.81,1.83,0,.59,0,1.18,0,1.81h-27.63Z"/>
  <path class="cls-1" d="m40.94,66.89c.6.03,1.21.03,1.82,0,.48-.02.81-.41.81-.87,0-.47-.3-.82-.8-.88-.28-.03-.57,0-.86,0h0c-.34,0-.68-.02-1.01.01-.46.05-.77.42-.77.86,0,.45.34.85.81.88Z"/>
  <path class="cls-1" d="m51.05,34.83c1.76.01,3.52,0,5.28,0,.51,0,1.01,0,1.52,0,1.32,0,2.64,0,3.96,0,.54,0,.92-.4.91-.89,0-.48-.36-.83-.88-.86-.15-.01-.3,0-.46,0-2.66,0-5.31,0-7.97,0-.79,0-1.59,0-2.38,0-.41,0-.72.16-.89.55-.26.62.18,1.21.91,1.21Z"/>
  <path class="cls-1" d="m51.05,39.71c1.76,0,3.52,0,5.28,0,1.79,0,3.59,0,5.38,0,.62,0,1.02-.37,1.01-.89,0-.53-.4-.86-1.03-.87-2.01,0-4.03,0-6.04,0-1.52,0-3.04,0-4.57,0-.6,0-.99.33-1.01.84-.03.52.37.92.98.92Z"/>
  <path class="cls-1" d="m29.88,55.16c-.41-.24-.85-.41-1.27-.63-.31-.16-.65-.31-.92-.52-.54-.43-.4-1.19.25-1.4.26-.08.58-.12.84-.06.57.12,1.12.32,1.71.5.18-.47.37-.97.59-1.56-.66-.24-1.28-.46-1.96-.71v-1.28h-1.55c0,.28-.03.53,0,.78.07.49-.1.73-.59.92-.9.35-1.43,1.05-1.53,2.03-.12,1.05.29,1.85,1.17,2.4.41.26.87.44,1.3.67.36.19.74.35,1.05.6.63.54.46,1.44-.33,1.68-.37.11-.81.12-1.19.04-.57-.13-1.1-.39-1.68-.6-.14.39-.31.81-.43,1.25-.03.13.04.38.14.43.48.23.98.49,1.49.58.42.08.53.24.49.62-.03.29,0,.59,0,.88h1.57c0-.39.02-.74,0-1.09-.02-.31.1-.44.38-.54,1.03-.38,1.69-1.1,1.83-2.22.15-1.22-.34-2.14-1.39-2.76Z"/>
</svg>