<?xml version="1.0" encoding="UTF-8"?>
<svg id="Capa_1" data-name="Capa 1" xmlns="http://www.w3.org/2000/svg" viewBox="0 0 85.94 86.71">
  <defs>
    <style>
      .cls-1 {
        opacity: .2;
      }

      .cls-1, .cls-2, .cls-3, .cls-4, .cls-5, .cls-6, .cls-7, .cls-8, .cls-9, .cls-10, .cls-11, .cls-12, .cls-13, .cls-14, .cls-15, .cls-16, .cls-17, .cls-18, .cls-19, .cls-20, .cls-21, .cls-22, .cls-23, .cls-24, .cls-25, .cls-26, .cls-27, .cls-28, .cls-29, .cls-30, .cls-31, .cls-32, .cls-33, .cls-34, .cls-35, .cls-36, .cls-37, .cls-38, .cls-39, .cls-40, .cls-41, .cls-42, .cls-43, .cls-44, .cls-45, .cls-46, .cls-47, .cls-48 {
        stroke-width: 0px;
      }

      .cls-1, .cls-2, .cls-3, .cls-4, .cls-5, .cls-6, .cls-7, .cls-8, .cls-9, .cls-10, .cls-11, .cls-12, .cls-13, .cls-14, .cls-15, .cls-16, .cls-17, .cls-18, .cls-19, .cls-20, .cls-22, .cls-23, .cls-24, .cls-25, .cls-26, .cls-27, .cls-28, .cls-29, .cls-30, .cls-31, .cls-32, .cls-33, .cls-34, .cls-35, .cls-36, .cls-37, .cls-38, .cls-39, .cls-40, .cls-41, .cls-42, .cls-43, .cls-44, .cls-45, .cls-46, .cls-47, .cls-48 {
        fill: #008069;
      }

      .cls-2 {
        opacity: .51;
      }

      .cls-3 {
        opacity: .23;
      }

      .cls-4 {
        opacity: .27;
      }

      .cls-5 {
        opacity: .98;
      }

      .cls-6 {
        opacity: .53;
      }

      .cls-7 {
        opacity: .79;
      }

      .cls-8 {
        opacity: .81;
      }

      .cls-9 {
        opacity: .86;
      }

      .cls-11 {
        opacity: .96;
      }

      .cls-12 {
        opacity: .54;
      }

      .cls-13 {
        opacity: .21;
      }

      .cls-14 {
        opacity: .68;
      }

      .cls-15 {
        opacity: .77;
      }

      .cls-16 {
        opacity: .92;
      }

      .cls-17 {
        opacity: .85;
      }

      .cls-18 {
        opacity: .31;
      }

      .cls-19 {
        opacity: .49;
      }

      .cls-20 {
        opacity: .25;
      }

      .cls-21 {
        fill: #fff;
      }

      .cls-22 {
        opacity: .94;
      }

      .cls-23 {
        opacity: .9;
      }

      .cls-24 {
        opacity: .43;
      }

      .cls-25 {
        opacity: .56;
      }

      .cls-26 {
        opacity: .8;
      }

      .cls-27 {
        opacity: .69;
      }

      .cls-28 {
        opacity: .24;
      }

      .cls-29 {
        opacity: .37;
      }

      .cls-30 {
        opacity: .88;
      }

      .cls-31 {
        opacity: .7;
      }

      .cls-32 {
        opacity: .72;
      }

      .cls-33 {
        opacity: .28;
      }

      .cls-34 {
        opacity: .71;
      }

      .cls-35 {
        opacity: .47;
      }

      .cls-36 {
        opacity: .22;
      }

      .cls-37 {
        opacity: .26;
      }

      .cls-38 {
        opacity: .61;
      }

      .cls-39 {
        opacity: .63;
      }

      .cls-40 {
        opacity: .58;
      }

      .cls-41 {
        opacity: .29;
      }

      .cls-42 {
        opacity: .33;
      }

      .cls-43 {
        opacity: .38;
      }

      .cls-44 {
        opacity: .89;
      }

      .cls-45 {
        opacity: .93;
      }

      .cls-46 {
        opacity: .52;
      }

      .cls-47 {
        opacity: .48;
      }

      .cls-48 {
        opacity: .46;
      }
    </style>
  </defs>
  <g>
    <path class="cls-10" d="m29.13,6.2c-.54-1.58-3.74-.25-5.45,1-1.71,1.24-2.87,3.37-1.74,3.92s2.11-1.54,3.66-2.3c1.56-.76,4.1-.93,3.52-2.61Z"/>
    <path class="cls-10" d="m19.58,13.62c-.78.53-.88,2.62-.07,2.68.81.07,1.45-1.13,1.61-1.91.17-.78-.5-1.48-1.54-.78Z"/>
    <path class="cls-10" d="m49.59,79.48c.17,2.45,6.23.78,11.87-3,5.63-3.77,8.14-6.4,6.54-7.8-1.6-1.4-4.64,2.23-8.14,5.15-4.46,3.72-10.48,2.74-10.27,5.65Z"/>
    <path class="cls-10" d="m71.91,63.21c-1.85-.19-2.26,3.18-.37,3.18s1.93-3.02.37-3.18Z"/>
    <g>
      <path class="cls-10" d="m76.24,59.96c.12,0,.25.02.36,0,.24-.05.47-.11.69-.18.71-.33,1.33-.91,1.79-1.52.06-.08.12-.16.17-.24.18-.43-.07-.94-.53-1.02-.18-.03-.34-.03-.5,0-.3.27-.62.52-.99.68-.08.06-.16.12-.25.16-.42.2-.79-.07-.73-.53.03-.2.1-.41.21-.58.17-.26.39-.5.6-.73.25-.28.29-.48.06-.76-.26-.32-.55-.63-.87-.88-.41-.32-.88-.36-1.36-.14-.23.11-.45.22-.67.34-.3.16-.53.38-.65.71-.06.16-.15.31-.22.47-.36.81-.49,1.63-.08,2.46.03.07.07.14.11.2.07.07.14.14.21.21.33.3.68.63,1.03.94.51.23,1.05.4,1.62.39Z"/>
      <path class="cls-22" d="m76.52,59.95c.05-.07.06-.11.09-.13.02-.02.07,0,.1,0,0,.03,0,.08-.02.09-.04.02-.1.03-.18.05Z"/>
      <path class="cls-43" d="m76.18,54.52c.08,0,.11.05.1.09-.01.03-.06.05-.1.08-.01,0-.02-.01-.03-.02,0-.05.02-.09.03-.14Z"/>
      <path class="cls-48" d="m77.39,57.94s.09-.01.13,0c.02,0,.04.03.06.05-.02.01-.04.04-.06.04-.04,0-.09-.03-.13-.04,0-.01,0-.03,0-.04Z"/>
      <path class="cls-4" d="m76.18,54.39s.08-.03.13-.05c.02.05.05.1-.02.12-.05.02-.09,0-.11-.07Z"/>
      <path class="cls-3" d="m78.91,57.25c-.03-.06-.08-.1-.02-.15.02-.01.06,0,.07,0,.04.06.01.1-.05.14Z"/>
      <path class="cls-4" d="m77.54,58.61s-.05.06-.07.07c-.05.01-.08-.02-.07-.07,0-.02.03-.05.05-.05.03,0,.05.03.09.05Z"/>
      <path class="cls-37" d="m78.05,57.59s.06.05.07.08c.01.04,0,.08-.06.08-.02,0-.06-.03-.06-.05,0-.03.03-.06.05-.11Z"/>
      <path class="cls-12" d="m75.97,54.87c-.1.02-.1-.06-.17-.09.11-.04.14.01.17.09Z"/>
      <path class="cls-9" d="m75.33,56.3c.06.04.08.09.04.14,0,0-.04,0-.05,0-.06-.04-.04-.09.01-.14Z"/>
      <path class="cls-7" d="m75.85,58.26c-.08.05-.11-.02-.16-.05.09-.05.12-.02.16.05Z"/>
      <path class="cls-16" d="m77.11,58.59v.15q-.07-.07,0-.15Z"/>
      <path class="cls-34" d="m76.01,58.52s-.05.04-.07.04c-.02,0-.03-.02-.05-.04.02-.01.03-.04.05-.04.02,0,.04.02.07.04Z"/>
      <path class="cls-45" d="m74.28,56.59s-.05.04-.05.04c-.02-.02-.03-.04-.05-.06.01-.01.03-.03.04-.03.02,0,.03.03.06.05Z"/>
      <path class="cls-1" d="m76.26,58.32s.05-.05.07-.07c.01,0,.02.02.03.03-.02.03-.04.05-.06.08-.01-.01-.03-.02-.04-.04Z"/>
      <path class="cls-33" d="m78.59,58.15s0,.06-.02.11c-.06-.05-.06-.08-.02-.11h.04Z"/>
      <path class="cls-31" d="m77.9,58.94s-.05.04-.05.04c-.02,0-.03-.03-.05-.04,0,0,.02-.03.03-.03.02,0,.04.01.08.03Z"/>
      <path class="cls-42" d="m74.73,57.79s0-.07,0-.1c.01,0,.03,0,.04,0,0,.03,0,.07,0,.1-.01,0-.03,0-.04,0Z"/>
      <path class="cls-23" d="m73.79,57.66l-.08-.03s0-.02,0-.03c.03,0,.05.01.08.02v.04Z"/>
      <path class="cls-4" d="m76.06,58.15s.05,0,.07,0c0,.01,0,.03,0,.04l-.07-.02s0-.02,0-.03Z"/>
      <path class="cls-46" d="m75.49,54.16s.02.04.03.06c-.01,0-.03.02-.03.02-.02-.01-.03-.03-.04-.05.01,0,.02-.02.04-.03Z"/>
      <path class="cls-11" d="m75.29,57.74s-.05,0-.06,0c-.01,0-.01-.03-.02-.04.02,0,.04,0,.05,0,0,0,.01.02.02.04Z"/>
      <path class="cls-38" d="m76.86,56.35s-.04.03-.06.05c0,0-.01-.01-.02-.02.02-.02.04-.04.05-.06,0,0,.02.02.03.03Z"/>
      <path class="cls-24" d="m74.63,59.11s-.04.02-.06.02c0,0-.03-.02-.02-.03,0-.01.02-.03.03-.04.01,0,.03.02.05.04Z"/>
      <path class="cls-42" d="m75.43,57.51s-.04.02-.05.01c0,0-.02-.03-.02-.03.01-.01.03-.02.04-.02,0,0,.01.02.03.04Z"/>
      <path class="cls-40" d="m79.01,57.64l-.04-.07s.02,0,.02-.01c.01.02.03.05.04.07,0,0-.02,0-.02.01Z"/>
      <path class="cls-3" d="m74.53,55.36s.03.04.03.05c0,.01-.02.03-.03.04-.01-.01-.03-.02-.04-.04,0-.01.02-.03.03-.05Z"/>
      <path class="cls-10" d="m76.8,55.58s-.03.02-.05.03c0,0-.02-.02-.03-.02.02-.01.03-.03.05-.04,0,.01.02.02.03.04Z"/>
      <path class="cls-10" d="m74.92,54.93s-.02.04-.03.04c-.02,0-.03-.01-.04-.02,0,0,.01-.03.02-.03.01,0,.03,0,.05.01Z"/>
      <path class="cls-25" d="m74.95,55.04s.02.03.02.04c0,0-.02.02-.03.03,0,0-.02-.02-.01-.02,0-.01,0-.02.02-.04Z"/>
      <path class="cls-22" d="m78.61,57.15s-.04.02-.06.03c0,0,0-.02-.01-.02.02-.01.04-.02.06-.03v.02Z"/>
      <path class="cls-6" d="m74.95,58.69s-.02.02-.03.03c0-.01-.02-.02-.02-.03,0,0,.01-.02.01-.02.01,0,.02.01.04.02Z"/>
      <path class="cls-28" d="m76.29,55.5s-.04.01-.06.02c0,0,0-.01,0-.02.02,0,.04-.02.05-.03,0,0,.01.02.02.03Z"/>
      <path class="cls-14" d="m77.21,59.53s-.05,0-.08,0c0,0,0-.02,0-.02.03,0,.05-.01.08-.02v.03Z"/>
      <path class="cls-46" d="m74.75,54.27s.02.04.02.04c-.01.01-.03.02-.04.03,0-.01-.01-.03-.01-.04,0-.01.02-.02.04-.03Z"/>
      <path class="cls-30" d="m74.88,57.47s-.02.02-.03.03c-.01-.01-.02-.02-.03-.04,0,0,.02-.02.03-.02,0,0,.02.02.03.03Z"/>
      <path class="cls-17" d="m76.29,58.82s-.02.01-.04.02c0,0-.01-.01-.02-.02.01,0,.02-.02.03-.02,0,0,0,.01.02.02Z"/>
      <path class="cls-2" d="m77.47,58.96s-.01.02-.02.02c-.01,0-.02-.01-.03-.02,0,0,0-.02.01-.02.01,0,.02,0,.03.01Z"/>
      <path class="cls-29" d="m73.99,54.49s0,.02,0,.04c0,0-.01,0-.02.01,0-.01-.01-.02-.01-.03,0,0,.01,0,.02-.02Z"/>
      <path class="cls-15" d="m76.96,55.58s-.01.01-.02.02c0,0-.02-.02-.02-.02,0,0,.02-.01.02-.01,0,0,.01.01.02.02Z"/>
      <path class="cls-26" d="m74.75,55.56s-.02.02-.03.03c0,0-.02,0-.03,0,0-.01,0-.03.01-.03.01,0,.02,0,.05.01Z"/>
    </g>
    <g>
      <path class="cls-10" d="m16.71,24.73s-.03,0-.05,0c-.13.05-.27.11-.4.14-.05.01-.1.01-.14,0-.2.1-.36.25-.5.42-.21.25-.4.52-.58.79-.15.23-.28.48-.47.79-.05-.34-.1-.6-.12-.87,0-.06.06-.13.11-.19.12-.14.25-.27.36-.42.54-.78.94-1.63,1.2-2.53.06-.22.11-.45.1-.68,0-.33-.22-.49-.55-.44-.29.04-.52.19-.69.41-.24.32-.45.67-.67,1-.04.06-.08.11-.14.2-.05-.49-.08-.93-.14-1.36-.05-.31-.1-.63-.21-.92-.13-.34-.48-.36-.7-.06-.05.08-.09.18-.1.27-.03.19-.05.39-.07.59-.03.31-.05.62-.09.99-.12-.13-.18-.21-.26-.28-.23-.21-.46-.44-.71-.62-.34-.23-.71-.28-1.07-.04-.23.15-.32.32-.23.58.08.26.19.51.31.75.46.91,1.19,1.58,1.97,2.2.09.07.19.16.21.26.06.31.09.62.13.93-.02,0-.04.02-.06.02-.06-.06-.11-.13-.18-.19-.2-.18-.39-.39-.61-.54-.29-.21-.61-.38-.91-.57-.28-.17-.54-.17-.79.02-.24.19-.2.43-.11.66.17.39.35.78.56,1.14.37.62.85,1.13,1.53,1.43.24.1.46.24.7.36.19.09.29.24.34.45.05.22.12.44.22.65.14.29.4.36.68.19.22-.13.31-.33.3-.58-.01-.29-.04-.59-.07-.88-.01-.14.02-.24.11-.36.47-.57.95-1.15,1.39-1.74.25-.33.45-.7.65-1.06.08-.16.13-.35.14-.53.02-.25-.15-.41-.4-.42Z"/>
      <path class="cls-44" d="m11.37,22.82s-.07.06-.1.07c0,0-.04-.03-.05-.05,0-.04.02-.08.06-.08.02,0,.04.03.08.06Z"/>
      <path class="cls-23" d="m14.18,22.01c.02.09,0,.13-.08.13q0-.08.08-.13Z"/>
      <path class="cls-5" d="m13.03,27.32q-.05-.08-.04-.18c.08.04.09.09.04.18Z"/>
      <path class="cls-4" d="m16.38,25.37c-.08,0-.1-.04-.09-.09,0-.01.04-.03.05-.03.06.02.06.06.04.12Z"/>
      <path class="cls-41" d="m13.45,24.99s-.05.04-.06.04c-.02,0-.04-.03-.04-.04,0-.02.03-.04.04-.04.01,0,.03.02.06.04Z"/>
      <path class="cls-36" d="m15.18,24.9s-.06.03-.07.03c-.02,0-.03-.03-.03-.05,0,0,.03-.03.04-.03.02,0,.03.03.06.05Z"/>
      <path class="cls-27" d="m16.12,22.52s-.02-.04-.03-.06c0,0,.02,0,.02-.01,0,.02.02.04.03.06,0,0-.02,0-.03.01Z"/>
      <path class="cls-44" d="m13.06,25.97s.03.04.03.05c0,.01-.03.02-.04.03,0,0-.03-.02-.02-.03,0-.01.02-.03.04-.05Z"/>
      <path class="cls-19" d="m11.82,22.5s-.05,0-.07,0c0,0,0-.02,0-.02.02,0,.05,0,.07,0,0,.01,0,.02,0,.04Z"/>
      <path class="cls-25" d="m13.09,26.42s.03.05.03.06c0,.01-.02.02-.03.04,0-.01-.02-.02-.03-.03,0-.02,0-.03.02-.07Z"/>
      <path class="cls-16" d="m11.61,26.74s.02.04.01.05c0,.01-.02.03-.03.04-.01,0-.03-.02-.04-.03,0-.01.01-.03.02-.04.01,0,.02-.01.03-.02Z"/>
      <path class="cls-11" d="m13.33,23.3c.02.05.03.07.03.08,0,0-.02.02-.03.02,0-.01-.02-.03-.03-.04,0-.01,0-.03.02-.06Z"/>
      <path class="cls-8" d="m15.52,23.99s.03.03.03.04c0,.01-.02.02-.04.03,0,0-.03-.02-.02-.03,0-.01.02-.02.03-.04Z"/>
      <path class="cls-48" d="m16.72,26.38s-.04.02-.05.02c0,0-.01-.02-.02-.03.01,0,.03-.02.04-.02,0,0,.01.02.03.04Z"/>
      <path class="cls-28" d="m15.53,24.65s.01.03.01.04c0,0-.02.01-.04.01,0,0-.01-.02-.01-.02,0,0,.02-.02.03-.03Z"/>
      <path class="cls-27" d="m15.17,26.92s-.03.03-.04.03c-.01,0-.02-.01-.04-.02,0,0,.01-.03.02-.03.01,0,.03,0,.05.02Z"/>
      <path class="cls-6" d="m12.85,27.94s.01.02.02.03c0,0-.02.02-.03.02,0,0-.01-.02-.02-.03,0,0,.01,0,.03-.02Z"/>
      <path class="cls-10" d="m13.93,23.07s.01.02.02.03c0,0-.01.01-.02.02,0-.01-.02-.02-.02-.03,0,0,.01,0,.02-.02Z"/>
      <path class="cls-29" d="m12.15,26.82s-.02.01-.03.02c0-.01,0-.02-.01-.03.01,0,.02,0,.04-.01,0,0,0,.01.01.03Z"/>
      <path class="cls-47" d="m13.52,22.72s-.01.01-.02.02c0,0-.01-.02-.02-.02,0,0,.02-.01.02-.01,0,0,.01.01.02.02Z"/>
      <path class="cls-1" d="m13.4,24.62s-.05.05-.07.08c-.02-.03-.03-.05-.05-.08h.12Z"/>
      <path class="cls-9" d="m14.26,24.89c.05-.05.1-.09.15-.14.01,0,.02.02.03.02-.02.04-.04.09-.07.13,0,.01-.03.02-.05.02-.02,0-.03-.02-.06-.04Z"/>
      <path class="cls-28" d="m14.28,26.45c.05-.01.11-.03.12.05,0,.02-.03.06-.04.06-.07,0-.1-.03-.08-.11Z"/>
      <path class="cls-18" d="m13.95,28.94s-.06-.07-.06-.09c0-.02.04-.06.06-.06.02,0,.06.04.06.06,0,.02-.03.05-.06.09Z"/>
      <path class="cls-20" d="m15.59,27.41s-.06.04-.09.04c-.01,0-.04-.04-.04-.06,0-.05.03-.07.08-.06.03,0,.05.02.07.04,0,.01-.01.03-.02.04Z"/>
      <path class="cls-42" d="m15.71,25.94s0-.05,0-.08c.02,0,.03,0,.05,0,0,.03,0,.05,0,.08-.01,0-.03,0-.04,0Z"/>
      <path class="cls-32" d="m12.4,27.73s.06-.02.08-.02c.02,0,.03.01.06.02-.04.05-.07.05-.13,0Z"/>
      <path class="cls-31" d="m16.84,25.43s-.05.03-.06.02c-.01,0-.02-.03-.02-.04,0,0,.02-.02.03-.02.01,0,.03.02.05.04Z"/>
      <path class="cls-38" d="m14.62,27.08s0-.04,0-.07c0,0,.02,0,.02,0v.06s-.01,0-.02,0Z"/>
      <path class="cls-35" d="m11.89,26.72s-.02-.03-.02-.04c0-.01.02-.02.03-.03,0,0,.02.02.02.03,0,.01-.01.02-.03.04Z"/>
      <path class="cls-13" d="m14.26,28.76s-.02-.02-.02-.04c0,0,.01-.01.02-.02,0,.01.02.02.02.03,0,0-.01.01-.02.02Z"/>
      <path class="cls-39" d="m13.18,27.23s-.03,0-.03,0c0-.01,0-.02-.01-.04,0,0,.02,0,.02,0,0,0,.01.02.02.03Z"/>
      <path class="cls-29" d="m12.85,24.86s-.02,0-.02,0c0-.01,0-.02,0-.03,0,0,.02,0,.02,0,0,0,0,.02,0,.02Z"/>
      <path class="cls-1" d="m13.4,24.62s-.05.05-.07.08c-.02-.03-.03-.05-.05-.08h.12Z"/>
      <path class="cls-9" d="m14.26,24.89c.05-.05.1-.09.15-.14.01,0,.02.02.03.02-.02.04-.04.09-.07.13,0,.01-.03.02-.05.02-.02,0-.03-.02-.06-.04Z"/>
      <path class="cls-28" d="m14.28,26.45c.05-.01.11-.03.12.05,0,.02-.03.06-.04.06-.07,0-.1-.03-.08-.11Z"/>
      <path class="cls-18" d="m13.95,28.94s-.06-.07-.06-.09c0-.02.04-.06.06-.06.02,0,.06.04.06.06,0,.02-.03.05-.06.09Z"/>
      <path class="cls-20" d="m15.59,27.41s-.06.04-.09.04c-.01,0-.04-.04-.04-.06,0-.05.03-.07.08-.06.03,0,.05.02.07.04,0,.01-.01.03-.02.04Z"/>
      <path class="cls-42" d="m15.71,25.94s0-.05,0-.08c.02,0,.03,0,.05,0,0,.03,0,.05,0,.08-.01,0-.03,0-.04,0Z"/>
      <path class="cls-32" d="m12.4,27.73s.06-.02.08-.02c.02,0,.03.01.06.02-.04.05-.07.05-.13,0Z"/>
      <path class="cls-31" d="m16.84,25.43s-.05.03-.06.02c-.01,0-.02-.03-.02-.04,0,0,.02-.02.03-.02.01,0,.03.02.05.04Z"/>
      <path class="cls-38" d="m14.62,27.08s0-.04,0-.07c0,0,.02,0,.02,0v.06s-.01,0-.02,0Z"/>
      <path class="cls-35" d="m11.89,26.72s-.02-.03-.02-.04c0-.01.02-.02.03-.03,0,0,.02.02.02.03,0,.01-.01.02-.03.04Z"/>
      <path class="cls-13" d="m14.26,28.76s-.02-.02-.02-.04c0,0,.01-.01.02-.02,0,.01.02.02.02.03,0,0-.01.01-.02.02Z"/>
      <path class="cls-39" d="m13.18,27.23s-.03,0-.03,0c0-.01,0-.02-.01-.04,0,0,.02,0,.02,0,0,0,.01.02.02.03Z"/>
      <path class="cls-29" d="m12.85,24.86s-.02,0-.02,0c0-.01,0-.02,0-.03,0,0,.02,0,.02,0,0,0,0,.02,0,.02Z"/>
    </g>
    <path class="cls-10" d="m65.49,64.72c-14.56,16.59-35.89,10.02-48.51-4.48-4.82-5.53-6.32-11.7-4.51-18.48,1.46-5.45,5.1-10.51,7.02-15.95,2.47-6.99,4.76-13.51,12.6-15.14,6.37-1.33,11.87.86,18.23,3.88,12.31,5.85,21.14,14.43,22.18,28.84.59,8.22-1.74,15.34-7.01,21.34Z"/>
  </g>
  <g>
    <path class="cls-21" d="m62.94,30.21c0-.24,0-.49-.06-.72-.27-1.18-1.22-1.9-2.49-1.91-2.18,0-4.36,0-6.55,0,.02-.92-.03-2.33-.55-2.66-.38-.45-.88-.69-1.44-.86h-18.8c-1.52.48-2.03,1.55-2.02,3.09.04,4.65.02,9.3.02,13.95h0v1.02c0,.31,0,.62,0,.94,0,.01,0,.02,0,.04v3.17c-3.78.36-6.75,3.54-6.76,7.41,0,3.84,2.89,7.03,6.61,7.44-.07,1.85.42,2.74.42,2.74l.02-.06c.06.11.1.23.17.33v.08h.04c.47.62,1.21.97,2.1.97,5.84,0,11.67,0,17.51,0,1.74,0,2.74-1,2.74-2.74,0-4.35,0-8.7,0-13.04h0v-4.26c2.14,0,4.29,0,6.43,0,1.59,0,2.61-1.02,2.61-2.62,0-4.11,0-8.22,0-12.33Zm-31.21,29.57c-3.35-.02-6.08-2.78-6.05-6.11.03-3.35,2.75-6.03,6.09-6.02,3.36.01,6.06,2.73,6.04,6.1-.02,3.34-2.75,6.05-6.07,6.03Zm20.76-1.65v.48h-.54c-4.04,0-8.09,0-12.13,0-.15,0-.3,0-.44,0-.35.04-.61.34-.62.68,0,.34.24.64.6.69.16.02.32.02.48.02,4.04,0,8.09,0,12.13,0h.52v2.31c0,1.15-.31,1.46-1.44,1.46-5.27,0-10.55,0-15.82,0-.56,0-1.12,0-1.69,0-.51,0-.86-.26-1.04-.74-.01-.03-.03-.04-.04-.07v-1.83c3.78-.37,6.75-3.54,6.76-7.41.01-3.84-2.92-7.05-6.66-7.45v-5.17h-.1c0-4.79,0-9.57,0-14.36,0-.91.36-1.27,1.26-1.27,5.85,0,11.7,0,17.55,0,.45,0,.8.14,1.07.51,0,0,.25.89.31,1.61-.68,0-1.35,0-2.03,0-3.27,0-6.53,0-9.8,0-1.55,0-2.57,1.03-2.57,2.57,0,4.14,0,8.27,0,12.41,0,1.56,1.03,2.59,2.6,2.59,3.88,0,7.75,0,11.63,0v2c0,.07,0,.15,0,.23v2.04h0c0,2.9,0,5.81,0,8.71Zm9.06-24.39c0,2.89,0,5.78,0,8.67,0,.96-.38,1.34-1.33,1.34-6.41,0-12.82,0-19.23,0-.96,0-1.33-.38-1.33-1.34,0-2.89,0-5.78,0-8.67,0-.13.01-.26.02-.42h21.88v.41Zm-21.87-1.88c0-.68-.03-1.33.01-1.98.03-.48.39-.79.87-.87.17-.03.35-.03.52-.03,6.34,0,12.69,0,19.03,0,1.09,0,1.43.35,1.43,1.45,0,.47,0,.93,0,1.43h-21.87Z"/>
    <path class="cls-21" d="m41.75,62.62c.48.03.96.02,1.44,0,.38-.02.64-.32.64-.69,0-.38-.24-.65-.63-.69-.22-.02-.45,0-.68,0h0c-.27,0-.54-.02-.8.01-.36.04-.61.34-.61.68,0,.36.27.68.64.7Z"/>
    <path class="cls-21" d="m49.76,37.25c1.39,0,2.78,0,4.18,0,.4,0,.8,0,1.2,0,1.04,0,2.09,0,3.13,0,.43,0,.72-.32.72-.7,0-.38-.28-.65-.7-.68-.12,0-.24,0-.36,0-2.1,0-4.2,0-6.3,0-.63,0-1.26,0-1.89,0-.33,0-.57.13-.7.43-.2.49.14.96.72.96Z"/>
    <path class="cls-21" d="m49.76,41.11c1.39,0,2.78,0,4.18,0,1.42,0,2.84,0,4.26,0,.49,0,.81-.29.8-.71,0-.42-.32-.68-.82-.69-1.59,0-3.19,0-4.78,0-1.2,0-2.41,0-3.61,0-.48,0-.78.26-.8.66-.02.41.3.72.78.73Z"/>
    <path class="cls-21" d="m33,53.33c-.32-.19-.67-.33-1-.5-.25-.13-.51-.24-.73-.41-.43-.34-.32-.94.2-1.11.21-.07.46-.1.67-.05.45.1.89.25,1.36.4.14-.37.29-.76.47-1.23-.52-.19-1.01-.37-1.55-.56v-1.01h-1.22c0,.22-.02.42,0,.61.06.39-.08.58-.46.73-.71.28-1.13.83-1.21,1.61-.09.83.23,1.47.93,1.9.33.2.69.35,1.03.53.28.15.59.28.83.48.5.42.37,1.14-.26,1.33-.29.09-.64.1-.94.03-.45-.1-.87-.31-1.33-.48-.11.31-.25.64-.34.99-.03.1.03.3.11.34.38.18.77.38,1.18.46.34.06.42.19.39.49-.02.23,0,.47,0,.7h1.25c0-.31.02-.59,0-.87-.02-.24.08-.35.3-.43.81-.3,1.34-.87,1.45-1.76.12-.97-.27-1.7-1.1-2.18Z"/>
  </g>
</svg>