<?xml version="1.0" encoding="UTF-8"?>
<svg id="Capa_1" data-name="Capa 1" xmlns="http://www.w3.org/2000/svg" viewBox="0 0 85.94 86.71">
  <defs>
    <style>
      .cls-1 {
        fill: #fff;
        stroke-width: 0px;
      }
    </style>
  </defs>
  <path class="cls-1" d="m38.43,60.01c.13-.12.43-.14.63-.1.94.21,1.79.01,2.46-.66.35-.35.69-.42,1.14-.42,5.13.01,10.26,0,15.39,0,1.28,0,1.64-.34,1.64-1.6,0-11.99,0-23.97,0-35.96,0-1.19-.37-1.56-1.53-1.56-13.57,0-27.14,0-40.71,0-1.12,0-1.49.39-1.49,1.52,0,2.8,0,5.61,0,8.41,0,.22-.02.45-.04.77-2.51-1.62-4.93-3.18-7.39-4.77-.44.68-.83,1.27-1.25,1.93,6.21,4.02,12.4,8.02,18.61,12.05-1.57,2.51-3.11,4.96-4.64,7.41-4.33-1.8-8.59-3.57-12.91-5.37-.3.73-.58,1.41-.88,2.12,2.66,1.11,5.26,2.2,7.88,3.26.48.19.63.44.62.95-.02,3.09-.01,6.18-.01,9.28,0,1.18.37,1.56,1.53,1.56,1.53,0,3.07.03,4.6-.01.58-.02.97.11,1.28.65.33.55.77,1.04,1.2,1.52,1.54,1.71,3.05,1.75,4.68.16.03-.03.09-.02.13-.02,1.12,1.11,2.21,1.44,3.2.98.6-.27,1.17-.83,1.7-1.67,1.74,1.05,2.63.95,4.15-.44Zm-20.13-3.51v-8.18c.68.28,1.3.5,1.9.79.16.08.34.34.34.52-.06,2.34.24,4.63,1.15,6.87h-3.38Zm16.11-34.45h6.82v9.12h-6.82v-9.12Zm-15.59,10.28c-.4-.26-.59-.52-.58-1.02.03-3.06.01-6.13.01-9.24h13.81v.78c0,3.04,0,6.09,0,9.13,0,1.18.37,1.55,1.54,1.55,2.83,0,5.66,0,8.49,0,1.08,0,1.48-.39,1.48-1.47,0-3.31,0-6.61,0-9.98h13.76v34.44h-14.91c-.31-.74-.61-1.45-.94-2.25h13.55v-2.34h-.76c-4.46,0-8.92,0-13.38.01-.48,0-.72-.14-.93-.57-.82-1.7-1.68-3.38-2.51-5.06,1.35-.19,2.67-.36,3.97-.57.49-.08.98-.24,1.44-.44,1.32-.57,2.08-2.03,1.83-3.41-.27-1.45-1.48-2.51-2.94-2.61-4.28-.29-8.55-.57-12.83-.89-.48-.04-.99-.21-1.39-.47-2.91-1.85-5.79-3.74-8.7-5.6Zm12.1,21.44c-.1-.1-.21-.19-.35-.3-.51.54-1,1.06-1.56,1.65.46.46,1.02.91,1.44,1.47.55.73,1.04,1.53,1.46,2.35.13.24-.05.64-.08.96-.26-.14-.6-.23-.78-.44-1.28-1.55-2.53-3.13-3.85-4.78-.59.47-1.16.93-1.79,1.43.55.7,1.1,1.35,1.6,2.04.2.28.36.63.4.96.03.26-.17.54-.27.81-.24-.1-.55-.14-.72-.31-1.2-1.21-2.06-2.63-2.69-4.2-.82-2.05-.94-4.19-.86-6.36,0-.22.14-.45.26-.65,1.5-2.42,3.02-4.83,4.51-7.26.23-.38.47-.48.92-.45,4.3.32,8.6.61,12.9.89.49.03.85.22.94.72.09.54-.21.9-.72.99-1.27.23-2.54.44-3.82.58-.69.08-1.39,0-2.08.02-1.24.01-1.71.79-1.16,1.92.6,1.23,1.22,2.44,1.83,3.66,1.11,2.23,2.24,4.45,3.33,6.68.22.44.69,1.03.1,1.41-.57.37-.78-.38-1.05-.7-1.44-1.67-2.83-3.38-4.25-5.07-.15-.18-.31-.35-.5-.57-.59.5-1.15.97-1.71,1.44,1.28,1.6,2.52,3.15,3.76,4.7.12.15.3.29.33.46.05.29,0,.59,0,.89-.27-.07-.62-.06-.79-.22-1.6-1.55-3.16-3.14-4.74-4.72Z"/>
  <path class="cls-1" d="m65.49,71.58v-7.02h13.72v-2.23c-.13-.01-.22-.03-.31-.03-4.82,0-9.64,0-14.45,0-.21,0-.42.1-.63.11-.3.01-.65.08-.9-.05-1.96-.99-4.01-1.42-6.19-1.12-1.59.22-3.18.41-4.77.67-.79.13-1.62.27-2.34.61-.97.46-1.36,1.43-1.49,2.5-2.09-.42-4.13-.79-6.16-1.25-1.92-.43-3.79-.49-5.64.3-1.32.56-2.02,1.59-1.96,2.88.06,1.24.86,2.21,2.18,2.65,4.81,1.6,9.63,3.2,14.44,4.81,1.72.58,3.46.72,5.23.28,2.07-.51,4.14-1.02,6.2-1.54.43-.11.77-.2,1.09.28.15.22.57.33.89.36,4.13.34,8.26.66,12.4.98.78.06,1.55.1,2.38.15.05-.79.1-1.5.15-2.28-4.65-.36-9.25-.72-13.83-1.08Zm-2.35-.97c-2.6.64-5.13,1.28-7.67,1.89-1.24.3-2.47.16-3.68-.25-4.79-1.6-9.58-3.19-14.37-4.8-.29-.1-.5-.43-.74-.65.25-.23.46-.54.75-.66.97-.4,1.99-.5,3.03-.29,3.03.6,6.06,1.19,9.09,1.8.51.1,1.01.35,1.52.37,1.31.05,2.63.02,3.98.02v-2.3c-1.01,0-2.03,0-3.05,0-.24,0-.48,0-.72,0-.45,0-.82-.23-.75-.66.05-.28.41-.66.69-.73,1-.22,2.03-.32,3.05-.46.9-.13,1.8-.25,2.71-.37,2.15-.28,4.09.27,5.84,1.49.15.1.3.33.3.5.02,1.68.01,3.35.01,5.1Z"/>
  <path class="cls-1" d="m55.04,47.38h-9.14v2.21h9.14v-2.21Z"/>
</svg>