<?xml version="1.0" encoding="UTF-8"?>
<svg id="Capa_1" data-name="Capa 1" xmlns="http://www.w3.org/2000/svg" viewBox="0 0 85.94 86.71">
  <defs>
    <style>
      .cls-1 {
        opacity: .2;
      }

      .cls-1, .cls-2, .cls-3, .cls-4, .cls-5, .cls-6, .cls-7, .cls-8, .cls-9, .cls-10, .cls-11, .cls-12, .cls-13, .cls-14, .cls-15, .cls-16, .cls-17, .cls-18, .cls-19, .cls-20, .cls-21, .cls-22, .cls-23, .cls-24, .cls-25, .cls-26, .cls-27, .cls-28, .cls-29, .cls-30, .cls-31, .cls-32, .cls-33, .cls-34, .cls-35, .cls-36, .cls-37, .cls-38, .cls-39, .cls-40, .cls-41, .cls-42, .cls-43, .cls-44, .cls-45, .cls-46, .cls-47, .cls-48 {
        stroke-width: 0px;
      }

      .cls-1, .cls-2, .cls-3, .cls-4, .cls-5, .cls-6, .cls-7, .cls-8, .cls-9, .cls-10, .cls-11, .cls-12, .cls-13, .cls-14, .cls-15, .cls-16, .cls-17, .cls-18, .cls-19, .cls-20, .cls-22, .cls-23, .cls-24, .cls-25, .cls-26, .cls-27, .cls-28, .cls-29, .cls-30, .cls-31, .cls-32, .cls-33, .cls-34, .cls-35, .cls-36, .cls-37, .cls-38, .cls-39, .cls-40, .cls-41, .cls-42, .cls-43, .cls-44, .cls-45, .cls-46, .cls-47, .cls-48 {
        fill: #008069;
      }

      .cls-2 {
        opacity: .51;
      }

      .cls-3 {
        opacity: .23;
      }

      .cls-4 {
        opacity: .27;
      }

      .cls-5 {
        opacity: .98;
      }

      .cls-6 {
        opacity: .53;
      }

      .cls-7 {
        opacity: .79;
      }

      .cls-8 {
        opacity: .81;
      }

      .cls-9 {
        opacity: .86;
      }

      .cls-11 {
        opacity: .96;
      }

      .cls-12 {
        opacity: .54;
      }

      .cls-13 {
        opacity: .21;
      }

      .cls-14 {
        opacity: .68;
      }

      .cls-15 {
        opacity: .77;
      }

      .cls-16 {
        opacity: .92;
      }

      .cls-17 {
        opacity: .85;
      }

      .cls-18 {
        opacity: .31;
      }

      .cls-19 {
        opacity: .49;
      }

      .cls-20 {
        opacity: .25;
      }

      .cls-21 {
        fill: #fff;
      }

      .cls-22 {
        opacity: .94;
      }

      .cls-23 {
        opacity: .9;
      }

      .cls-24 {
        opacity: .43;
      }

      .cls-25 {
        opacity: .56;
      }

      .cls-26 {
        opacity: .8;
      }

      .cls-27 {
        opacity: .69;
      }

      .cls-28 {
        opacity: .24;
      }

      .cls-29 {
        opacity: .37;
      }

      .cls-30 {
        opacity: .88;
      }

      .cls-31 {
        opacity: .7;
      }

      .cls-32 {
        opacity: .72;
      }

      .cls-33 {
        opacity: .28;
      }

      .cls-34 {
        opacity: .71;
      }

      .cls-35 {
        opacity: .47;
      }

      .cls-36 {
        opacity: .22;
      }

      .cls-37 {
        opacity: .26;
      }

      .cls-38 {
        opacity: .61;
      }

      .cls-39 {
        opacity: .63;
      }

      .cls-40 {
        opacity: .58;
      }

      .cls-41 {
        opacity: .29;
      }

      .cls-42 {
        opacity: .33;
      }

      .cls-43 {
        opacity: .38;
      }

      .cls-44 {
        opacity: .89;
      }

      .cls-45 {
        opacity: .93;
      }

      .cls-46 {
        opacity: .52;
      }

      .cls-47 {
        opacity: .48;
      }

      .cls-48 {
        opacity: .46;
      }
    </style>
  </defs>
  <g>
    <path class="cls-10" d="m82.49,60.2c1.5.73,2.82-2.47,3.15-4.56.33-2.09-.35-4.41-1.54-4s-.4,2.58-.96,4.22c-.56,1.64-2.24,3.56-.65,4.34Z"/>
    <path class="cls-10" d="m83.99,48.19c.18-.93-1.23-2.48-1.85-1.95-.62.53-.22,1.82.21,2.49.43.67,1.41.69,1.64-.54Z"/>
    <path class="cls-10" d="m16.2,22.85c-1.85-1.61-4.96,3.86-6.27,10.51-1.32,6.65-1.23,10.28.89,10.14,2.12-.14,1.7-4.86,2.11-9.4.52-5.79,5.47-9.34,3.27-11.26Z"/>
    <path class="cls-10" d="m11.93,50.13c1.45-1.18-.65-3.85-1.99-2.51s.77,3.5,1.99,2.51Z"/>
    <g>
      <path class="cls-10" d="m11.15,55.5c-.08.08-.19.16-.25.26-.13.2-.25.41-.36.62-.27.74-.3,1.58-.19,2.34.01.1.03.19.05.29.18.43.71.62,1.09.35.15-.1.26-.22.35-.36.02-.4.07-.81.22-1.18.01-.1.03-.2.07-.29.15-.44.61-.51.89-.14.12.16.22.36.26.55.06.31.08.63.1.94.02.37.13.55.49.58.41.04.83.06,1.24.01.51-.06.88-.37,1.06-.87.09-.24.16-.48.23-.72.1-.32.11-.64-.04-.96-.07-.16-.12-.33-.18-.49-.32-.83-.81-1.5-1.69-1.8-.07-.02-.14-.05-.22-.07-.1,0-.19,0-.29,0-.45.02-.92.03-1.39.06-.52.2-1.02.46-1.42.87Z"/>
      <path class="cls-22" d="m10.96,55.69c.02.08.04.12.03.16,0,.03-.04.05-.07.08-.02-.03-.05-.06-.05-.08.01-.05.05-.09.09-.16Z"/>
      <path class="cls-43" d="m15.04,59.3c-.06.05-.11.05-.13,0-.01-.03,0-.08.01-.12.01,0,.03,0,.04,0,.03.04.05.08.08.12Z"/>
      <path class="cls-48" d="m11.77,57.74s-.05.07-.09.09c-.02.01-.05,0-.08,0,0-.02,0-.06.02-.07.04-.03.08-.04.12-.06,0,.01.01.02.02.04Z"/>
      <path class="cls-4" d="m15.14,59.39s-.03.08-.05.12c-.04-.02-.1-.03-.07-.1.02-.05.07-.07.13-.02Z"/>
      <path class="cls-3" d="m11.19,59.3c.07.02.13.01.12.09,0,.02-.04.05-.06.05-.07-.01-.08-.06-.06-.14Z"/>
      <path class="cls-4" d="m11.19,57.36s-.01-.08,0-.1c.03-.04.07-.04.1,0,.01.02.01.06,0,.07-.02.02-.06.02-.1.03Z"/>
      <path class="cls-37" d="m11.55,58.45c-.05,0-.08,0-.1,0-.04-.02-.05-.06-.02-.1.02-.02.07-.02.08-.01.02.02.03.06.04.11Z"/>
      <path class="cls-12" d="m14.94,58.9c.06-.09.11-.03.18-.05-.05.1-.11.09-.18.05Z"/>
      <path class="cls-9" d="m14.39,57.44c-.07.01-.12,0-.13-.07,0-.01.02-.03.04-.04.07,0,.09.03.09.11Z"/>
      <path class="cls-7" d="m12.63,56.43c.02-.09.09-.07.15-.08-.03.1-.08.1-.15.08Z"/>
      <path class="cls-16" d="m11.51,57.08l-.11-.11q.09,0,.11.11Z"/>
      <path class="cls-34" d="m12.34,56.36s0-.07.02-.08c.01-.01.04,0,.06,0,0,.02,0,.05,0,.06-.01.01-.04.01-.08.02Z"/>
      <path class="cls-45" d="m14.93,56.49s0-.06,0-.06c.02,0,.05,0,.08,0,0,.02,0,.05,0,.05-.02,0-.04,0-.07,0Z"/>
      <path class="cls-1" d="m12.3,56.67s0,.07,0,.1c-.01,0-.03,0-.04,0,0-.03,0-.07-.01-.1.02,0,.04,0,.06,0Z"/>
      <path class="cls-33" d="m10.78,58.44s-.04-.05-.07-.09c.08,0,.1.02.1.06l-.03.03Z"/>
      <path class="cls-31" d="m10.7,57.39s0-.06,0-.07c.02,0,.04,0,.06,0,0,.01,0,.03,0,.04-.02.01-.04.02-.07.04Z"/>
      <path class="cls-42" d="m13.75,55.96s.05.05.08.07c0,0-.02.02-.03.03-.03-.02-.05-.05-.08-.07,0,0,.02-.02.03-.03Z"/>
      <path class="cls-23" d="m14.51,55.38l.08-.03s0,.02.01.02c-.02.01-.05.03-.07.04l-.02-.03Z"/>
      <path class="cls-4" d="m12.56,56.65s-.04.03-.06.04c0-.01-.01-.02-.02-.03l.06-.03s0,.02.01.02Z"/>
      <path class="cls-46" d="m15.79,59.06s-.04-.01-.06-.02c0-.01,0-.03,0-.04.02,0,.04,0,.06,0,0,.01,0,.02,0,.05Z"/>
      <path class="cls-11" d="m13.4,56.39s.03-.04.04-.04c.01,0,.03.01.04.02-.01.01-.02.03-.04.04,0,0-.02,0-.05-.01Z"/>
      <path class="cls-38" d="m13.27,58.48s0-.05,0-.08c0,0,.02,0,.03,0,0,.03,0,.05,0,.08-.01,0-.03,0-.04,0Z"/>
      <path class="cls-24" d="m12.89,54.96s.02-.05.03-.06c0,0,.03,0,.04,0,0,.01.01.04,0,.05,0,0-.03,0-.06,0Z"/>
      <path class="cls-42" d="m13.46,56.65s.02-.04.03-.05c0,0,.03,0,.03,0,0,.02,0,.03-.01.05,0,0-.02,0-.05,0Z"/>
      <path class="cls-40" d="m10.84,59.09l.08.02s0,.02,0,.02c-.03,0-.05-.02-.08-.02,0,0,0-.02,0-.02Z"/>
      <path class="cls-3" d="m15.61,57.54s-.05,0-.06-.01c0,0,0-.03,0-.05.02,0,.04,0,.05,0,0,0,0,.03.01.06Z"/>
      <path class="cls-10" d="m13.86,58.98s0-.04.02-.05c0,0,.03,0,.04,0,0,.02,0,.04,0,.06-.01,0-.03,0-.05,0Z"/>
      <path class="cls-10" d="m15.65,58.12s-.01-.05,0-.05c.01,0,.03-.01.05-.01,0,0,.01.03,0,.03,0,.01-.03.02-.05.03Z"/>
      <path class="cls-25" d="m15.55,58.06s-.04,0-.04-.02c0,0,0-.02,0-.04,0,0,.02,0,.03,0,0,0,0,.02.02.05Z"/>
      <path class="cls-22" d="m11.46,59.15s.01-.05.02-.07c0,0,.02,0,.03,0,0,.02-.01.05-.02.07h-.03Z"/>
      <path class="cls-6" d="m12.97,55.48s0-.03,0-.04c.01,0,.03,0,.04,0,0,0,0,.02,0,.03-.01,0-.02,0-.04,0Z"/>
      <path class="cls-28" d="m14.28,58.68s.02-.04.03-.06c0,0,.01,0,.02,0,0,.02-.01.04-.02.06-.01,0-.02,0-.03,0Z"/>
      <path class="cls-14" d="m10.77,56.49s.03-.04.05-.06c0,0,.01,0,.02.01-.01.02-.03.04-.04.07l-.02-.02Z"/>
      <path class="cls-46" d="m16.23,58.46s-.04-.01-.04-.01c0-.02,0-.03.01-.05.01,0,.03,0,.03.02,0,.01,0,.03,0,.04Z"/>
      <path class="cls-30" d="m13.88,56.29s0-.03,0-.04c.02,0,.03,0,.05,0,0,0,0,.03,0,.04,0,0-.02,0-.04,0Z"/>
      <path class="cls-17" d="m11.92,56.34s0-.03.01-.04c0,0,.02,0,.02,0,0,.01,0,.03,0,.04,0,0-.02,0-.03,0Z"/>
      <path class="cls-2" d="m11,57.07s0-.03,0-.03c.01,0,.02,0,.03,0,0,0,0,.02,0,.02,0,0-.02,0-.03.02Z"/>
      <path class="cls-29" d="m16.62,57.77s-.02-.01-.03-.02c0,0,0-.01,0-.02.01,0,.02,0,.03.01,0,0,0,.02,0,.03Z"/>
      <path class="cls-15" d="m13.74,59.1s0-.02,0-.02c.01,0,.02,0,.03,0,0,0,0,.02,0,.02,0,0-.02,0-.02,0Z"/>
      <path class="cls-26" d="m15.32,57.55s0-.03,0-.04c0,0,.02,0,.02-.01,0,.01.02.03.01.03,0,0-.02.01-.04.02Z"/>
    </g>
    <g>
      <path class="cls-10" d="m78.16,38.31s.02-.02.03-.04c.06-.13.11-.26.19-.38.03-.04.06-.08.1-.1.07-.21.08-.43.06-.65-.03-.32-.09-.65-.15-.97-.06-.27-.14-.54-.23-.89.27.2.49.36.7.53.05.04.05.14.06.21.02.18.01.37.04.55.17.93.49,1.81.94,2.64.11.2.24.39.4.55.24.24.5.19.69-.08.17-.23.23-.51.19-.78-.05-.4-.15-.79-.23-1.18-.01-.07-.02-.13-.04-.25.38.31.71.6,1.06.86.25.19.51.38.8.5.33.15.6-.09.53-.45-.02-.09-.06-.19-.12-.26-.11-.16-.24-.31-.37-.46-.2-.24-.4-.47-.64-.76.17,0,.28.02.39.01.32-.02.64,0,.95-.06.4-.07.7-.3.79-.73.06-.27,0-.45-.25-.58-.24-.13-.5-.23-.75-.31-.97-.32-1.96-.28-2.95-.16-.11.01-.25.02-.34-.04-.26-.17-.5-.38-.75-.57,0-.02.02-.04.03-.06.09,0,.17.01.26,0,.27-.01.55,0,.81-.05.35-.06.7-.16,1.05-.24.32-.08.5-.27.54-.58.04-.3-.16-.45-.39-.54-.4-.15-.8-.31-1.21-.41-.7-.17-1.4-.19-2.09.08-.24.1-.5.16-.75.24-.2.07-.38.04-.56-.07-.19-.12-.4-.23-.61-.31-.3-.11-.54.03-.62.35-.06.25.01.46.19.62.22.2.45.39.67.58.11.09.16.18.18.33.07.74.14,1.48.25,2.21.06.41.17.81.29,1.21.05.17.16.34.28.47.16.19.4.19.58.02Z"/>
      <path class="cls-44" d="m83.29,35.89c0-.05,0-.09.02-.12,0,0,.05,0,.07,0,.04.03.04.07,0,.1-.02.01-.05.01-.1.02Z"/>
      <path class="cls-23" d="m81.87,38.44c-.08-.05-.09-.09-.04-.15q.06.05.04.15Z"/>
      <path class="cls-5" d="m78.94,33.88q.09.02.15.1c-.08.03-.13,0-.15-.1Z"/>
      <path class="cls-4" d="m77.94,37.63c.05-.06.1-.05.13,0,0,.01,0,.05-.01.06-.05.03-.09,0-.12-.05Z"/>
      <path class="cls-41" d="m80.29,35.82s0-.06.01-.08c.01-.01.05,0,.06,0,.01.01.01.05,0,.06,0,.01-.04,0-.07.01Z"/>
      <path class="cls-36" d="m79.13,37.11s.02-.07.03-.07c.01,0,.04,0,.06.02,0,0,0,.04-.01.05-.02,0-.04,0-.08,0Z"/>
      <path class="cls-27" d="m80.14,39.46s.04.02.06.03c0,0,0,.02,0,.03-.02,0-.04-.02-.07-.02,0,0,0-.02.01-.03Z"/>
      <path class="cls-44" d="m79.87,34.85s-.05,0-.06-.02c0-.02,0-.04.01-.05,0,0,.03,0,.04,0,0,.01,0,.03,0,.06Z"/>
      <path class="cls-19" d="m83.2,36.43s.04-.03.05-.05c0,0,.01.01.02.02-.02.02-.03.04-.05.06,0,0-.02-.02-.02-.03Z"/>
      <path class="cls-25" d="m79.52,34.55s-.06,0-.07-.02c0,0,0-.03,0-.05.01,0,.03,0,.04,0,.01,0,.02.03.03.06Z"/>
      <path class="cls-16" d="m80.35,33.29s-.04-.01-.05-.03c0-.01,0-.03,0-.05.02,0,.04-.01.05,0,.01,0,.01.03.02.04,0,.01,0,.03,0,.04Z"/>
      <path class="cls-11" d="m81.56,36.94c-.05-.02-.07-.02-.08-.04,0,0,0-.02,0-.04.02,0,.04,0,.05.01,0,0,.01.02.03.06Z"/>
      <path class="cls-8" d="m79.52,37.99s-.05,0-.05,0c0-.01,0-.03,0-.05,0,0,.03,0,.04,0,0,.01,0,.03,0,.05Z"/>
      <path class="cls-48" d="m76.99,37.15s.02-.04.03-.05c0,0,.02,0,.03,0,0,.02,0,.03-.02.05,0,0-.02,0-.05,0Z"/>
      <path class="cls-28" d="m79.06,37.53s-.04-.01-.03-.02c0-.01,0-.02.02-.03,0,0,.02,0,.02,0,0,.01,0,.02,0,.05Z"/>
      <path class="cls-27" d="m77.7,35.67s0-.04,0-.04c0,0,.02-.01.04-.01,0,.01,0,.03,0,.04,0,0-.02.01-.04.02Z"/>
      <path class="cls-6" d="m78.62,33.31s-.02,0-.03-.01c0,0,0-.03,0-.03,0,0,.02,0,.03,0,0,0,0,.02,0,.04Z"/>
      <path class="cls-10" d="m81.3,37.52s-.03,0-.04-.01c0,0,0-.02,0-.02.01,0,.03,0,.04,0,0,0,0,.02,0,.03Z"/>
      <path class="cls-29" d="m79.91,33.61s0-.02.01-.04c.01,0,.02,0,.03.01,0,.01-.01.02-.02.03,0,0-.01,0-.03-.01Z"/>
      <path class="cls-47" d="m81.84,37.48s0-.02,0-.03c.01,0,.02,0,.03,0,0,0,0,.02,0,.02,0,0-.02,0-.02,0Z"/>
      <path class="cls-1" d="m80.58,36.04s0-.07,0-.11c.03,0,.06.01.09.02l-.08.08Z"/>
      <path class="cls-9" d="m79.79,36.46c0,.07,0,.14,0,.2-.01,0-.03,0-.04,0-.02-.05-.03-.09-.05-.14,0-.01,0-.04.02-.05.01,0,.04,0,.07-.01Z"/>
      <path class="cls-28" d="m78.66,35.37s-.06.1-.12.05c-.02-.01-.02-.06-.01-.07.05-.05.09-.04.14.02Z"/>
      <path class="cls-18" d="m77.14,33.38s.09,0,.1.02c.01.02.01.07,0,.09-.01.02-.07.02-.08,0-.02-.02-.01-.06-.02-.11Z"/>
      <path class="cls-20" d="m77.06,35.62s.01-.07.03-.1c0,0,.06,0,.07.01.03.03.03.07-.01.1-.02.01-.05.02-.08.03,0-.01-.01-.03-.02-.04Z"/>
      <path class="cls-42" d="m78.01,36.74s.04.04.06.05c-.01.01-.02.02-.03.04-.02-.02-.03-.04-.05-.06,0,0,.02-.02.03-.03Z"/>
      <path class="cls-32" d="m79.09,33.14s-.03.06-.04.07c-.01.01-.03.01-.06.02,0-.06.02-.08.09-.09Z"/>
      <path class="cls-31" d="m77.57,37.91s.02-.05.03-.06c.01,0,.03,0,.04.02,0,0,0,.03,0,.04-.01,0-.03,0-.06,0Z"/>
      <path class="cls-38" d="m77.98,35.18s.03.03.05.04c0,0-.01.01-.02.02l-.05-.05s0-.01.01-.02Z"/>
      <path class="cls-35" d="m80.16,33.49s.04,0,.04.02c0,.01,0,.03,0,.05-.01,0-.03,0-.04,0,0,0,0-.02,0-.06Z"/>
      <path class="cls-13" d="m77.05,33.73s.03,0,.04.01c0,0,0,.02,0,.03-.01,0-.03,0-.04,0,0,0,0-.02,0-.03Z"/>
      <path class="cls-39" d="m78.89,34.05s.01-.03.02-.03c.01,0,.02.01.03.02,0,0,0,.02-.01.02-.01,0-.02,0-.04,0Z"/>
      <path class="cls-29" d="m80.8,35.49s0-.01.01-.02c0,0,.02.01.02.02,0,0-.01.01-.02.01,0,0-.01-.01-.02-.02Z"/>
      <path class="cls-1" d="m80.58,36.04s0-.07,0-.11c.03,0,.06.01.09.02l-.08.08Z"/>
      <path class="cls-9" d="m79.79,36.46c0,.07,0,.14,0,.2-.01,0-.03,0-.04,0-.02-.05-.03-.09-.05-.14,0-.01,0-.04.02-.05.01,0,.04,0,.07-.01Z"/>
      <path class="cls-28" d="m78.66,35.37s-.06.1-.12.05c-.02-.01-.02-.06-.01-.07.05-.05.09-.04.14.02Z"/>
      <path class="cls-18" d="m77.14,33.38s.09,0,.1.02c.01.02.01.07,0,.09-.01.02-.07.02-.08,0-.02-.02-.01-.06-.02-.11Z"/>
      <path class="cls-20" d="m77.06,35.62s.01-.07.03-.1c0,0,.06,0,.07.01.03.03.03.07-.01.1-.02.01-.05.02-.08.03,0-.01-.01-.03-.02-.04Z"/>
      <path class="cls-42" d="m78.01,36.74s.04.04.06.05c-.01.01-.02.02-.03.04-.02-.02-.03-.04-.05-.06,0,0,.02-.02.03-.03Z"/>
      <path class="cls-32" d="m79.09,33.14s-.03.06-.04.07c-.01.01-.03.01-.06.02,0-.06.02-.08.09-.09Z"/>
      <path class="cls-31" d="m77.57,37.91s.02-.05.03-.06c.01,0,.03,0,.04.02,0,0,0,.03,0,.04-.01,0-.03,0-.06,0Z"/>
      <path class="cls-38" d="m77.98,35.18s.03.03.05.04c0,0-.01.01-.02.02l-.05-.05s0-.01.01-.02Z"/>
      <path class="cls-35" d="m80.16,33.49s.04,0,.04.02c0,.01,0,.03,0,.05-.01,0-.03,0-.04,0,0,0,0-.02,0-.06Z"/>
      <path class="cls-13" d="m77.05,33.73s.03,0,.04.01c0,0,0,.02,0,.03-.01,0-.03,0-.04,0,0,0,0-.02,0-.03Z"/>
      <path class="cls-39" d="m78.89,34.05s.01-.03.02-.03c.01,0,.02.01.03.02,0,0,0,.02-.01.02-.01,0-.02,0-.04,0Z"/>
      <path class="cls-29" d="m80.8,35.49s0-.01.01-.02c0,0,.02.01.02.02,0,0-.01.01-.02.01,0,0-.01-.01-.02-.02Z"/>
    </g>
    <path class="cls-10" d="m15.39,44.52c-1.43-22.02,18.29-32.46,37.47-31.13,7.32.5,12.74,3.8,16.26,9.88,2.82,4.89,3.82,11.04,6.31,16.25,3.19,6.69,6.19,12.92,1.8,19.61-3.56,5.44-9,7.79-15.64,10.14-12.85,4.57-25.15,4.75-36.07-4.71-6.23-5.39-9.61-12.08-10.13-20.05Z"/>
  </g>
  <g>
    <path class="cls-21" d="m44.29,52.08c.09-.09.31-.1.45-.07.67.15,1.27,0,1.75-.47.25-.25.49-.3.81-.3,3.65,0,7.3,0,10.94,0,.91,0,1.16-.24,1.16-1.14,0-8.52,0-17.04,0-25.56,0-.84-.26-1.11-1.09-1.11-9.65,0-19.3,0-28.94,0-.79,0-1.06.27-1.06,1.08,0,1.99,0,3.99,0,5.98,0,.16-.02.32-.03.55-1.78-1.15-3.5-2.26-5.25-3.39-.31.48-.59.91-.89,1.37,4.42,2.86,8.81,5.71,13.23,8.56-1.12,1.79-2.21,3.53-3.3,5.27-3.08-1.28-6.11-2.54-9.18-3.82-.22.52-.41,1-.63,1.51,1.89.79,3.74,1.57,5.6,2.32.34.14.45.31.44.67-.02,2.2,0,4.4,0,6.6,0,.84.26,1.11,1.09,1.11,1.09,0,2.18.02,3.27,0,.41-.01.69.08.91.46.23.39.55.74.85,1.08,1.09,1.22,2.17,1.25,3.33.11.02-.02.06-.01.1-.02.8.79,1.57,1.02,2.28.7.43-.19.83-.59,1.21-1.18,1.23.75,1.87.67,2.95-.31Zm-14.31-2.49v-5.81c.48.2.93.36,1.35.56.12.06.24.24.24.37-.04,1.67.17,3.29.81,4.88h-2.4Zm11.46-24.49h4.85v6.48h-4.85v-6.48Zm-11.08,7.31c-.29-.18-.42-.37-.42-.73.02-2.18,0-4.36,0-6.57h9.82v.55c0,2.16,0,4.33,0,6.49,0,.84.26,1.1,1.09,1.1,2.01,0,4.02,0,6.03,0,.77,0,1.05-.28,1.05-1.04,0-2.35,0-4.7,0-7.1h9.78v24.49h-10.6c-.22-.52-.43-1.03-.67-1.6h9.63v-1.66h-.54c-3.17,0-6.34,0-9.51,0-.34,0-.51-.1-.66-.4-.58-1.21-1.19-2.4-1.79-3.6.96-.14,1.9-.25,2.82-.41.35-.06.7-.17,1.02-.31.94-.41,1.48-1.44,1.3-2.43-.19-1.03-1.05-1.79-2.09-1.86-3.04-.2-6.08-.4-9.12-.63-.34-.03-.7-.15-.99-.33-2.07-1.31-4.12-2.66-6.18-3.98Zm8.6,15.24c-.07-.07-.15-.13-.25-.21-.36.38-.71.75-1.11,1.17.32.33.72.65,1.02,1.05.39.52.74,1.09,1.04,1.67.09.17-.03.45-.06.69-.19-.1-.43-.16-.55-.32-.91-1.1-1.8-2.23-2.74-3.4-.42.33-.82.66-1.27,1.02.39.5.78.96,1.14,1.45.14.2.26.45.28.69.02.18-.12.38-.19.57-.17-.07-.39-.1-.51-.22-.85-.86-1.47-1.87-1.92-2.99-.59-1.46-.67-2.98-.61-4.52,0-.16.1-.32.19-.46,1.07-1.72,2.15-3.44,3.21-5.16.17-.27.33-.34.65-.32,3.06.23,6.11.43,9.17.63.35.02.6.16.67.51.07.38-.15.64-.51.71-.9.16-1.81.31-2.71.42-.49.06-.99,0-1.48.01-.88.01-1.22.56-.83,1.36.43.87.86,1.74,1.3,2.6.79,1.58,1.59,3.16,2.37,4.75.15.31.49.73.07,1-.41.26-.55-.27-.75-.5-1.02-1.19-2.01-2.4-3.02-3.61-.11-.13-.22-.25-.36-.4-.42.35-.82.69-1.22,1.02.91,1.14,1.79,2.24,2.67,3.34.09.11.21.21.23.33.04.21,0,.42,0,.63-.19-.05-.44-.04-.56-.16-1.14-1.1-2.25-2.23-3.37-3.35Z"/>
    <path class="cls-21" d="m63.53,60.31v-4.99h9.76v-1.58c-.09-.01-.16-.02-.22-.02-3.43,0-6.85,0-10.28,0-.15,0-.3.07-.45.08-.21,0-.46.06-.64-.03-1.39-.7-2.85-1.01-4.4-.8-1.13.15-2.26.29-3.39.47-.56.09-1.15.19-1.66.44-.69.33-.96,1.02-1.06,1.78-1.48-.3-2.94-.56-4.38-.89-1.36-.3-2.7-.35-4.01.21-.94.4-1.44,1.13-1.39,2.05.04.88.61,1.57,1.55,1.88,3.42,1.14,6.84,2.27,10.26,3.42,1.22.41,2.46.51,3.72.2,1.47-.36,2.94-.72,4.41-1.1.31-.08.55-.14.78.2.1.16.41.24.63.26,2.94.24,5.87.47,8.81.7.55.04,1.1.07,1.69.11.04-.56.07-1.07.11-1.62-3.31-.26-6.57-.51-9.83-.76Zm-1.67-.69c-1.85.46-3.65.91-5.45,1.34-.88.21-1.76.11-2.62-.18-3.41-1.14-6.81-2.26-10.22-3.41-.2-.07-.35-.3-.53-.46.18-.16.32-.38.53-.47.69-.29,1.41-.35,2.15-.21,2.15.43,4.31.85,6.46,1.28.36.07.72.25,1.08.27.93.04,1.87.01,2.83.01v-1.63c-.72,0-1.44,0-2.17,0-.17,0-.34,0-.51,0-.32,0-.59-.16-.53-.47.03-.2.29-.47.49-.52.71-.16,1.45-.23,2.17-.33.64-.09,1.28-.18,1.92-.26,1.53-.2,2.9.19,4.15,1.06.11.07.21.23.22.36.02,1.19,0,2.38,0,3.62Z"/>
    <path class="cls-21" d="m56.11,43.1h-6.5v1.57h6.5v-1.57Z"/>
  </g>
</svg>