<?xml version="1.0" encoding="UTF-8"?>
<svg id="Capa_1" data-name="Capa 1" xmlns="http://www.w3.org/2000/svg" viewBox="0 0 85.94 86.71">
  <defs>
    <style>
      .cls-1 {
        fill: #fff;
        stroke-width: 0px;
      }
    </style>
  </defs>
  <path class="cls-1" d="m68.14,27.78c0-2.12-1.46-3.55-3.59-3.57-2.22-.01-4.44-.01-6.66,0-2.15.01-3.59,1.46-3.62,3.61,0,.41,0,.81,0,1.31-.89-.51-1.68-.97-2.49-1.41-2.51-1.35-5.19-2.24-8.05-2.3-4.6-.1-9.21-.1-13.81-.06-2.26.02-4.01,1.56-4.45,3.72-.24,1.22-.01,2.37.67,3.45-1.37.57-2.36,1.5-2.83,2.9-.48,1.42-.24,2.76.51,4.05-1.42.58-2.38,1.53-2.84,2.93-.46,1.4-.23,2.73.53,3.99-.2.1-.36.17-.52.25-2.02,1.01-3.01,3.35-2.33,5.5.64,2.01,2.4,3.25,4.67,3.25,4.93,0,9.86,0,14.79,0h.7c-.07.24-.11.41-.16.58-.73,2.4-1.51,4.78-2.19,7.19-.86,3.07.98,6.23,4.06,7.04,2.36.62,4.34,0,5.25-2.62.81-2.31,1.75-4.58,2.62-6.87,1.17-3.08,2.93-5.79,5.29-8.09.16-.15.33-.3.58-.52,0,.33,0,.53,0,.72.01,2.25,1.44,3.7,3.68,3.71,2.2,0,4.41.01,6.61,0,2.13-.01,3.57-1.45,3.57-3.58,0-8.4,0-16.79,0-25.19Zm-13.87,12.67c0,2.73,0,5.45-.01,8.18,0,.24-.15.56-.33.71-3.53,2.84-6.09,6.37-7.7,10.6-.9,2.38-1.82,4.75-2.73,7.12-.34.89-.69,1.11-1.64,1.06-2.19-.11-3.75-2.23-3.14-4.37.7-2.46,1.49-4.9,2.24-7.34.59-1.94-.42-3.32-2.44-3.32-5.09,0-10.19,0-15.28,0-1.34,0-2.32-.81-2.47-2.02-.17-1.38.89-2.56,2.35-2.57,2.53-.02,5.06,0,7.58,0,1.06,0,1.62-.41,1.61-1.17,0-.76-.57-1.15-1.63-1.16-1.81,0-3.61.02-5.42-.01-1.17-.02-2.05-.9-2.19-2.08-.12-1.07.59-2.13,1.67-2.42.29-.08.61-.09.91-.09,2.15,0,4.3,0,6.45,0,.77,0,1.26-.38,1.34-.99.1-.78-.42-1.33-1.32-1.34-1.52-.01-3.03.03-4.55-.02-1.68-.05-2.72-1.85-1.94-3.34.44-.84,1.16-1.25,2.12-1.25,1.73,0,3.47,0,5.2,0,.16,0,.33,0,.49,0,.71-.06,1.18-.52,1.18-1.17,0-.64-.48-1.13-1.19-1.15-1.17-.03-2.35.01-3.52-.02-1.29-.04-2.26-1.11-2.22-2.38.04-1.22,1.02-2.19,2.29-2.2,1.88-.02,3.76,0,5.63,0,2.22,0,4.44.01,6.66,0,3.2-.02,6.17.79,8.94,2.38.86.5,1.71,1,2.59,1.47.35.19.47.4.47.8-.02,2.71,0,5.42,0,8.13Zm11.57,12.29c0,1.14-.38,1.52-1.53,1.52-2.1,0-4.19,0-6.29,0-1.01,0-1.42-.4-1.42-1.41,0-8.31,0-16.62,0-24.92,0-1.01.4-1.41,1.42-1.41,2.11,0,4.23,0,6.34,0,1.08,0,1.48.4,1.48,1.46,0,4.14,0,8.27,0,12.41s0,8.24,0,12.35Z"/>
</svg>