<?xml version="1.0" encoding="UTF-8"?>
<svg id="Capa_1" data-name="Capa 1" xmlns="http://www.w3.org/2000/svg" viewBox="0 0 85.94 86.71">
  <defs>
    <style>
      .cls-1 {
        opacity: .2;
      }

      .cls-1, .cls-2, .cls-3, .cls-4, .cls-5, .cls-6, .cls-7, .cls-8, .cls-9, .cls-10, .cls-11, .cls-12, .cls-13, .cls-14, .cls-15, .cls-16, .cls-17, .cls-18, .cls-19, .cls-20, .cls-21, .cls-22, .cls-23, .cls-24, .cls-25, .cls-26, .cls-27, .cls-28, .cls-29, .cls-30, .cls-31, .cls-32, .cls-33, .cls-34, .cls-35, .cls-36, .cls-37, .cls-38, .cls-39, .cls-40, .cls-41, .cls-42, .cls-43, .cls-44, .cls-45, .cls-46, .cls-47, .cls-48 {
        stroke-width: 0px;
      }

      .cls-1, .cls-2, .cls-3, .cls-4, .cls-5, .cls-6, .cls-7, .cls-8, .cls-9, .cls-10, .cls-11, .cls-12, .cls-13, .cls-14, .cls-15, .cls-16, .cls-17, .cls-18, .cls-19, .cls-20, .cls-22, .cls-23, .cls-24, .cls-25, .cls-26, .cls-27, .cls-28, .cls-29, .cls-30, .cls-31, .cls-32, .cls-33, .cls-34, .cls-35, .cls-36, .cls-37, .cls-38, .cls-39, .cls-40, .cls-41, .cls-42, .cls-43, .cls-44, .cls-45, .cls-46, .cls-47, .cls-48 {
        fill: #008069;
      }

      .cls-2 {
        opacity: .51;
      }

      .cls-3 {
        opacity: .23;
      }

      .cls-4 {
        opacity: .27;
      }

      .cls-5 {
        opacity: .98;
      }

      .cls-6 {
        opacity: .53;
      }

      .cls-7 {
        opacity: .79;
      }

      .cls-8 {
        opacity: .81;
      }

      .cls-9 {
        opacity: .86;
      }

      .cls-11 {
        opacity: .96;
      }

      .cls-12 {
        opacity: .54;
      }

      .cls-13 {
        opacity: .21;
      }

      .cls-14 {
        opacity: .68;
      }

      .cls-15 {
        opacity: .77;
      }

      .cls-16 {
        opacity: .92;
      }

      .cls-17 {
        opacity: .85;
      }

      .cls-18 {
        opacity: .31;
      }

      .cls-19 {
        opacity: .49;
      }

      .cls-20 {
        opacity: .25;
      }

      .cls-21 {
        fill: #fff;
      }

      .cls-22 {
        opacity: .94;
      }

      .cls-23 {
        opacity: .9;
      }

      .cls-24 {
        opacity: .43;
      }

      .cls-25 {
        opacity: .56;
      }

      .cls-26 {
        opacity: .8;
      }

      .cls-27 {
        opacity: .69;
      }

      .cls-28 {
        opacity: .24;
      }

      .cls-29 {
        opacity: .37;
      }

      .cls-30 {
        opacity: .88;
      }

      .cls-31 {
        opacity: .7;
      }

      .cls-32 {
        opacity: .72;
      }

      .cls-33 {
        opacity: .28;
      }

      .cls-34 {
        opacity: .71;
      }

      .cls-35 {
        opacity: .47;
      }

      .cls-36 {
        opacity: .22;
      }

      .cls-37 {
        opacity: .26;
      }

      .cls-38 {
        opacity: .61;
      }

      .cls-39 {
        opacity: .63;
      }

      .cls-40 {
        opacity: .58;
      }

      .cls-41 {
        opacity: .29;
      }

      .cls-42 {
        opacity: .33;
      }

      .cls-43 {
        opacity: .38;
      }

      .cls-44 {
        opacity: .89;
      }

      .cls-45 {
        opacity: .93;
      }

      .cls-46 {
        opacity: .52;
      }

      .cls-47 {
        opacity: .48;
      }

      .cls-48 {
        opacity: .46;
      }
    </style>
  </defs>
  <g>
    <path class="cls-10" d="m82.49,63c1.5.73,2.82-2.47,3.15-4.56.33-2.09-.35-4.41-1.54-4s-.4,2.58-.96,4.22c-.56,1.64-2.24,3.56-.65,4.34Z"/>
    <path class="cls-10" d="m83.99,50.99c.18-.93-1.23-2.48-1.85-1.95-.62.53-.22,1.82.21,2.49.43.67,1.41.69,1.64-.54Z"/>
    <path class="cls-10" d="m16.2,25.65c-1.85-1.61-4.96,3.86-6.27,10.51-1.32,6.65-1.23,10.28.89,10.14,2.12-.14,1.7-4.86,2.11-9.4.52-5.79,5.47-9.34,3.27-11.26Z"/>
    <path class="cls-10" d="m11.93,52.93c1.45-1.18-.65-3.85-1.99-2.51s.77,3.5,1.99,2.51Z"/>
    <g>
      <path class="cls-10" d="m11.15,58.3c-.08.08-.19.16-.25.26-.13.2-.25.41-.36.62-.27.74-.3,1.58-.19,2.34.01.1.03.19.05.29.18.43.71.62,1.09.35.15-.1.26-.22.35-.36.02-.4.07-.81.22-1.18.01-.1.03-.2.07-.29.15-.44.61-.51.89-.14.12.16.22.36.26.55.06.31.08.63.1.94.02.37.13.55.49.58.41.04.83.06,1.24.01.51-.06.88-.37,1.06-.87.09-.24.16-.48.23-.72.1-.32.11-.64-.04-.96-.07-.16-.12-.33-.18-.49-.32-.83-.81-1.5-1.69-1.8-.07-.02-.14-.05-.22-.07-.1,0-.19,0-.29,0-.45.02-.92.03-1.39.06-.52.2-1.02.46-1.42.87Z"/>
      <path class="cls-22" d="m10.96,58.49c.02.08.04.12.03.16,0,.03-.04.05-.07.08-.02-.03-.05-.06-.05-.08.01-.05.05-.09.09-.16Z"/>
      <path class="cls-43" d="m15.04,62.1c-.06.05-.11.05-.13,0-.01-.03,0-.08.01-.12.01,0,.03,0,.04,0,.03.04.05.08.08.12Z"/>
      <path class="cls-48" d="m11.77,60.54s-.05.07-.09.09c-.02.01-.05,0-.08,0,0-.02,0-.06.02-.07.04-.03.08-.04.12-.06,0,.01.01.02.02.04Z"/>
      <path class="cls-4" d="m15.14,62.19s-.03.08-.05.12c-.04-.02-.1-.03-.07-.1.02-.05.07-.07.13-.02Z"/>
      <path class="cls-3" d="m11.19,62.1c.07.02.13.01.12.09,0,.02-.04.05-.06.05-.07-.01-.08-.06-.06-.14Z"/>
      <path class="cls-4" d="m11.19,60.16s-.01-.08,0-.1c.03-.04.07-.04.1,0,.01.02.01.06,0,.07-.02.02-.06.02-.1.03Z"/>
      <path class="cls-37" d="m11.55,61.25c-.05,0-.08,0-.1,0-.04-.02-.05-.06-.02-.1.02-.02.07-.02.08-.01.02.02.03.06.04.11Z"/>
      <path class="cls-12" d="m14.94,61.7c.06-.09.11-.03.18-.05-.05.1-.11.09-.18.05Z"/>
      <path class="cls-9" d="m14.39,60.24c-.07.01-.12,0-.13-.07,0-.01.02-.03.04-.04.07,0,.09.03.09.11Z"/>
      <path class="cls-7" d="m12.63,59.23c.02-.09.09-.07.15-.08-.03.1-.08.1-.15.08Z"/>
      <path class="cls-16" d="m11.51,59.88l-.11-.11q.09,0,.11.11Z"/>
      <path class="cls-34" d="m12.34,59.15s0-.07.02-.08c.01-.01.04,0,.06,0,0,.02,0,.05,0,.06-.01.01-.04.01-.08.02Z"/>
      <path class="cls-45" d="m14.93,59.29s0-.06,0-.06c.02,0,.05,0,.08,0,0,.02,0,.05,0,.05-.02,0-.04,0-.07,0Z"/>
      <path class="cls-1" d="m12.3,59.47s0,.07,0,.1c-.01,0-.03,0-.04,0,0-.03,0-.07-.01-.1.02,0,.04,0,.06,0Z"/>
      <path class="cls-33" d="m10.78,61.24s-.04-.05-.07-.09c.08,0,.1.02.1.06l-.03.03Z"/>
      <path class="cls-31" d="m10.7,60.19s0-.06,0-.07c.02,0,.04,0,.06,0,0,.01,0,.03,0,.04-.02.01-.04.02-.07.04Z"/>
      <path class="cls-42" d="m13.75,58.76s.05.05.08.07c0,0-.02.02-.03.03-.03-.02-.05-.05-.08-.07,0,0,.02-.02.03-.03Z"/>
      <path class="cls-23" d="m14.51,58.18l.08-.03s0,.02.01.02c-.02.01-.05.03-.07.04l-.02-.03Z"/>
      <path class="cls-4" d="m12.56,59.44s-.04.03-.06.04c0-.01-.01-.02-.02-.03l.06-.03s0,.02.01.02Z"/>
      <path class="cls-46" d="m15.79,61.86s-.04-.01-.06-.02c0-.01,0-.03,0-.04.02,0,.04,0,.06,0,0,.01,0,.02,0,.05Z"/>
      <path class="cls-11" d="m13.4,59.19s.03-.04.04-.04c.01,0,.03.01.04.02-.01.01-.02.03-.04.04,0,0-.02,0-.05-.01Z"/>
      <path class="cls-38" d="m13.27,61.28s0-.05,0-.08c0,0,.02,0,.03,0,0,.03,0,.05,0,.08-.01,0-.03,0-.04,0Z"/>
      <path class="cls-24" d="m12.89,57.76s.02-.05.03-.06c0,0,.03,0,.04,0,0,.01.01.04,0,.05,0,0-.03,0-.06,0Z"/>
      <path class="cls-42" d="m13.46,59.45s.02-.04.03-.05c0,0,.03,0,.03,0,0,.02,0,.03-.01.05,0,0-.02,0-.05,0Z"/>
      <path class="cls-40" d="m10.84,61.89l.08.02s0,.02,0,.02c-.03,0-.05-.02-.08-.02,0,0,0-.02,0-.02Z"/>
      <path class="cls-3" d="m15.61,60.34s-.05,0-.06-.01c0,0,0-.03,0-.05.02,0,.04,0,.05,0,0,0,0,.03.01.06Z"/>
      <path class="cls-10" d="m13.86,61.78s0-.04.02-.05c0,0,.03,0,.04,0,0,.02,0,.04,0,.06-.01,0-.03,0-.05,0Z"/>
      <path class="cls-10" d="m15.65,60.92s-.01-.05,0-.05c.01,0,.03-.01.05-.01,0,0,.01.03,0,.03,0,.01-.03.02-.05.03Z"/>
      <path class="cls-25" d="m15.55,60.86s-.04,0-.04-.02c0,0,0-.02,0-.04,0,0,.02,0,.03,0,0,0,0,.02.02.05Z"/>
      <path class="cls-22" d="m11.46,61.95s.01-.05.02-.07c0,0,.02,0,.03,0,0,.02-.01.05-.02.07h-.03Z"/>
      <path class="cls-6" d="m12.97,58.28s0-.03,0-.04c.01,0,.03,0,.04,0,0,0,0,.02,0,.03-.01,0-.02,0-.04,0Z"/>
      <path class="cls-28" d="m14.28,61.48s.02-.04.03-.06c0,0,.01,0,.02,0,0,.02-.01.04-.02.06-.01,0-.02,0-.03,0Z"/>
      <path class="cls-14" d="m10.77,59.29s.03-.04.05-.06c0,0,.01,0,.02.01-.01.02-.03.04-.04.07l-.02-.02Z"/>
      <path class="cls-46" d="m16.23,61.26s-.04-.01-.04-.01c0-.02,0-.03.01-.05.01,0,.03,0,.03.02,0,.01,0,.03,0,.04Z"/>
      <path class="cls-30" d="m13.88,59.09s0-.03,0-.04c.02,0,.03,0,.05,0,0,0,0,.03,0,.04,0,0-.02,0-.04,0Z"/>
      <path class="cls-17" d="m11.92,59.14s0-.03.01-.04c0,0,.02,0,.02,0,0,.01,0,.03,0,.04,0,0-.02,0-.03,0Z"/>
      <path class="cls-2" d="m11,59.87s0-.03,0-.03c.01,0,.02,0,.03,0,0,0,0,.02,0,.02,0,0-.02,0-.03.02Z"/>
      <path class="cls-29" d="m16.62,60.57s-.02-.01-.03-.02c0,0,0-.01,0-.02.01,0,.02,0,.03.01,0,0,0,.02,0,.03Z"/>
      <path class="cls-15" d="m13.74,61.9s0-.02,0-.02c.01,0,.02,0,.03,0,0,0,0,.02,0,.02,0,0-.02,0-.02,0Z"/>
      <path class="cls-26" d="m15.32,60.35s0-.03,0-.04c0,0,.02,0,.02-.01,0,.01.02.03.01.03,0,0-.02.01-.04.02Z"/>
    </g>
    <g>
      <path class="cls-10" d="m78.16,41.11s.02-.02.03-.04c.06-.13.11-.26.19-.38.03-.04.06-.08.1-.1.07-.21.08-.43.06-.65-.03-.32-.09-.65-.15-.97-.06-.27-.14-.54-.23-.89.27.2.49.36.7.53.05.04.05.14.06.21.02.18.01.37.04.55.17.93.49,1.81.94,2.64.11.2.24.39.4.55.24.24.5.19.69-.08.17-.23.23-.51.19-.78-.05-.4-.15-.79-.23-1.18-.01-.07-.02-.13-.04-.25.38.31.71.6,1.06.86.25.19.51.38.8.5.33.15.6-.09.53-.45-.02-.09-.06-.19-.12-.26-.11-.16-.24-.31-.37-.46-.2-.24-.4-.47-.64-.76.17,0,.28.02.39.01.32-.02.64,0,.95-.06.4-.07.7-.3.79-.73.06-.27,0-.45-.25-.58-.24-.13-.5-.23-.75-.31-.97-.32-1.96-.28-2.95-.16-.11.01-.25.02-.34-.04-.26-.17-.5-.38-.75-.57,0-.02.02-.04.03-.06.09,0,.17.01.26,0,.27-.01.55,0,.81-.05.35-.06.7-.16,1.05-.24.32-.08.5-.27.54-.58.04-.3-.16-.45-.39-.54-.4-.15-.8-.31-1.21-.41-.7-.17-1.4-.19-2.09.08-.24.1-.5.16-.75.24-.2.07-.38.04-.56-.07-.19-.12-.4-.23-.61-.31-.3-.11-.54.03-.62.35-.06.25.01.46.19.62.22.2.45.39.67.58.11.09.16.18.18.33.07.74.14,1.48.25,2.21.06.41.17.81.29,1.21.05.17.16.34.28.47.16.19.4.19.58.02Z"/>
      <path class="cls-44" d="m83.29,38.69c0-.05,0-.09.02-.12,0,0,.05,0,.07,0,.04.03.04.07,0,.1-.02.01-.05.01-.1.02Z"/>
      <path class="cls-23" d="m81.87,41.24c-.08-.05-.09-.09-.04-.15q.06.05.04.15Z"/>
      <path class="cls-5" d="m78.94,36.68q.09.02.15.1c-.08.03-.13,0-.15-.1Z"/>
      <path class="cls-4" d="m77.94,40.43c.05-.06.1-.05.13,0,0,.01,0,.05-.01.06-.05.03-.09,0-.12-.05Z"/>
      <path class="cls-41" d="m80.29,38.62s0-.06.01-.08c.01-.01.05,0,.06,0,.01.01.01.05,0,.06,0,.01-.04,0-.07.01Z"/>
      <path class="cls-36" d="m79.13,39.91s.02-.07.03-.07c.01,0,.04,0,.06.02,0,0,0,.04-.01.05-.02,0-.04,0-.08,0Z"/>
      <path class="cls-27" d="m80.14,42.26s.04.02.06.03c0,0,0,.02,0,.03-.02,0-.04-.02-.07-.02,0,0,0-.02.01-.03Z"/>
      <path class="cls-44" d="m79.87,37.65s-.05,0-.06-.02c0-.02,0-.04.01-.05,0,0,.03,0,.04,0,0,.01,0,.03,0,.06Z"/>
      <path class="cls-19" d="m83.2,39.23s.04-.03.05-.05c0,0,.01.01.02.02-.02.02-.03.04-.05.06,0,0-.02-.02-.02-.03Z"/>
      <path class="cls-25" d="m79.52,37.35s-.06,0-.07-.02c0,0,0-.03,0-.05.01,0,.03,0,.04,0,.01,0,.02.03.03.06Z"/>
      <path class="cls-16" d="m80.35,36.09s-.04-.01-.05-.03c0-.01,0-.03,0-.05.02,0,.04-.01.05,0,.01,0,.01.03.02.04,0,.01,0,.03,0,.04Z"/>
      <path class="cls-11" d="m81.56,39.74c-.05-.02-.07-.02-.08-.04,0,0,0-.02,0-.04.02,0,.04,0,.05.01,0,0,.01.02.03.06Z"/>
      <path class="cls-8" d="m79.52,40.79s-.05,0-.05,0c0-.01,0-.03,0-.05,0,0,.03,0,.04,0,0,.01,0,.03,0,.05Z"/>
      <path class="cls-48" d="m76.99,39.95s.02-.04.03-.05c0,0,.02,0,.03,0,0,.02,0,.03-.02.05,0,0-.02,0-.05,0Z"/>
      <path class="cls-28" d="m79.06,40.33s-.04-.01-.03-.02c0-.01,0-.02.02-.03,0,0,.02,0,.02,0,0,.01,0,.02,0,.05Z"/>
      <path class="cls-27" d="m77.7,38.47s0-.04,0-.04c0,0,.02-.01.04-.01,0,.01,0,.03,0,.04,0,0-.02.01-.04.02Z"/>
      <path class="cls-6" d="m78.62,36.11s-.02,0-.03-.01c0,0,0-.03,0-.03,0,0,.02,0,.03,0,0,0,0,.02,0,.04Z"/>
      <path class="cls-10" d="m81.3,40.32s-.03,0-.04-.01c0,0,0-.02,0-.02.01,0,.03,0,.04,0,0,0,0,.02,0,.03Z"/>
      <path class="cls-29" d="m79.91,36.41s0-.02.01-.04c.01,0,.02,0,.03.01,0,.01-.01.02-.02.03,0,0-.01,0-.03-.01Z"/>
      <path class="cls-47" d="m81.84,40.28s0-.02,0-.03c.01,0,.02,0,.03,0,0,0,0,.02,0,.02,0,0-.02,0-.02,0Z"/>
      <path class="cls-1" d="m80.58,38.84s0-.07,0-.11c.03,0,.06.01.09.02l-.08.08Z"/>
      <path class="cls-9" d="m79.79,39.26c0,.07,0,.14,0,.2-.01,0-.03,0-.04,0-.02-.05-.03-.09-.05-.14,0-.01,0-.04.02-.05.01,0,.04,0,.07-.01Z"/>
      <path class="cls-28" d="m78.66,38.17s-.06.1-.12.05c-.02-.01-.02-.06-.01-.07.05-.05.09-.04.14.02Z"/>
      <path class="cls-18" d="m77.14,36.18s.09,0,.1.02c.01.02.01.07,0,.09-.01.02-.07.02-.08,0-.02-.02-.01-.06-.02-.11Z"/>
      <path class="cls-20" d="m77.06,38.42s.01-.07.03-.1c0,0,.06,0,.07.01.03.03.03.07-.01.1-.02.01-.05.02-.08.03,0-.01-.01-.03-.02-.04Z"/>
      <path class="cls-42" d="m78.01,39.54s.04.04.06.05c-.01.01-.02.02-.03.04-.02-.02-.03-.04-.05-.06,0,0,.02-.02.03-.03Z"/>
      <path class="cls-32" d="m79.09,35.94s-.03.06-.04.07c-.01.01-.03.01-.06.02,0-.06.02-.08.09-.09Z"/>
      <path class="cls-31" d="m77.57,40.71s.02-.05.03-.06c.01,0,.03,0,.04.02,0,0,0,.03,0,.04-.01,0-.03,0-.06,0Z"/>
      <path class="cls-38" d="m77.98,37.98s.03.03.05.04c0,0-.01.01-.02.02l-.05-.05s0-.01.01-.02Z"/>
      <path class="cls-35" d="m80.16,36.29s.04,0,.04.02c0,.01,0,.03,0,.05-.01,0-.03,0-.04,0,0,0,0-.02,0-.06Z"/>
      <path class="cls-13" d="m77.05,36.53s.03,0,.04.01c0,0,0,.02,0,.03-.01,0-.03,0-.04,0,0,0,0-.02,0-.03Z"/>
      <path class="cls-39" d="m78.89,36.85s.01-.03.02-.03c.01,0,.02.01.03.02,0,0,0,.02-.01.02-.01,0-.02,0-.04,0Z"/>
      <path class="cls-29" d="m80.8,38.29s0-.01.01-.02c0,0,.02.01.02.02,0,0-.01.01-.02.01,0,0-.01-.01-.02-.02Z"/>
      <path class="cls-1" d="m80.58,38.84s0-.07,0-.11c.03,0,.06.01.09.02l-.08.08Z"/>
      <path class="cls-9" d="m79.79,39.26c0,.07,0,.14,0,.2-.01,0-.03,0-.04,0-.02-.05-.03-.09-.05-.14,0-.01,0-.04.02-.05.01,0,.04,0,.07-.01Z"/>
      <path class="cls-28" d="m78.66,38.17s-.06.1-.12.05c-.02-.01-.02-.06-.01-.07.05-.05.09-.04.14.02Z"/>
      <path class="cls-18" d="m77.14,36.18s.09,0,.1.02c.01.02.01.07,0,.09-.01.02-.07.02-.08,0-.02-.02-.01-.06-.02-.11Z"/>
      <path class="cls-20" d="m77.06,38.42s.01-.07.03-.1c0,0,.06,0,.07.01.03.03.03.07-.01.1-.02.01-.05.02-.08.03,0-.01-.01-.03-.02-.04Z"/>
      <path class="cls-42" d="m78.01,39.54s.04.04.06.05c-.01.01-.02.02-.03.04-.02-.02-.03-.04-.05-.06,0,0,.02-.02.03-.03Z"/>
      <path class="cls-32" d="m79.09,35.94s-.03.06-.04.07c-.01.01-.03.01-.06.02,0-.06.02-.08.09-.09Z"/>
      <path class="cls-31" d="m77.57,40.71s.02-.05.03-.06c.01,0,.03,0,.04.02,0,0,0,.03,0,.04-.01,0-.03,0-.06,0Z"/>
      <path class="cls-38" d="m77.98,37.98s.03.03.05.04c0,0-.01.01-.02.02l-.05-.05s0-.01.01-.02Z"/>
      <path class="cls-35" d="m80.16,36.29s.04,0,.04.02c0,.01,0,.03,0,.05-.01,0-.03,0-.04,0,0,0,0-.02,0-.06Z"/>
      <path class="cls-13" d="m77.05,36.53s.03,0,.04.01c0,0,0,.02,0,.03-.01,0-.03,0-.04,0,0,0,0-.02,0-.03Z"/>
      <path class="cls-39" d="m78.89,36.85s.01-.03.02-.03c.01,0,.02.01.03.02,0,0,0,.02-.01.02-.01,0-.02,0-.04,0Z"/>
      <path class="cls-29" d="m80.8,38.29s0-.01.01-.02c0,0,.02.01.02.02,0,0-.01.01-.02.01,0,0-.01-.01-.02-.02Z"/>
    </g>
    <path class="cls-10" d="m15.39,47.32c-1.43-22.02,18.29-32.46,37.47-31.13,7.32.5,12.74,3.8,16.26,9.88,2.82,4.89,3.82,11.04,6.31,16.25,3.19,6.69,6.19,12.92,1.8,19.61-3.56,5.44-9,7.79-15.64,10.14-12.85,4.57-25.15,4.75-36.07-4.71-6.23-5.39-9.61-12.08-10.13-20.05Z"/>
  </g>
  <path class="cls-21" d="m59.92,33.47c0-1.39-.96-2.33-2.36-2.34-1.46,0-2.92,0-4.38,0-1.41,0-2.36.96-2.37,2.37,0,.27,0,.53,0,.86-.59-.33-1.1-.64-1.63-.92-1.65-.89-3.41-1.47-5.28-1.51-3.02-.06-6.05-.06-9.07-.04-1.48.01-2.64,1.02-2.92,2.44-.16.8,0,1.55.44,2.27-.9.38-1.55.98-1.86,1.9-.32.93-.16,1.81.33,2.66-.93.38-1.56,1.01-1.86,1.93-.3.92-.15,1.79.35,2.62-.13.06-.24.11-.34.17-1.32.66-1.97,2.2-1.53,3.61.42,1.32,1.57,2.13,3.07,2.13,3.24,0,6.47,0,9.71,0h.46c-.04.16-.07.27-.11.38-.48,1.57-.99,3.14-1.43,4.72-.56,2.01.64,4.09,2.66,4.62,1.55.4,2.85,0,3.45-1.72.53-1.52,1.15-3.01,1.72-4.51.77-2.02,1.92-3.8,3.47-5.31.1-.1.22-.2.38-.34,0,.22,0,.35,0,.47,0,1.48.95,2.43,2.42,2.44,1.45,0,2.89,0,4.34,0,1.4,0,2.34-.95,2.35-2.35,0-5.51,0-11.03,0-16.54Zm-9.1,8.32c0,1.79,0,3.58,0,5.37,0,.16-.1.37-.22.47-2.32,1.87-4,4.18-5.05,6.96-.59,1.56-1.19,3.12-1.79,4.67-.22.58-.45.73-1.08.69-1.44-.07-2.46-1.47-2.06-2.87.46-1.61.98-3.22,1.47-4.82.39-1.27-.27-2.18-1.6-2.18-3.34,0-6.69,0-10.03,0-.88,0-1.52-.53-1.62-1.33-.11-.91.58-1.68,1.54-1.69,1.66-.01,3.32,0,4.98,0,.69,0,1.06-.27,1.06-.77,0-.5-.37-.76-1.07-.76-1.19,0-2.37.01-3.56,0-.77-.01-1.35-.59-1.44-1.37-.08-.7.39-1.4,1.1-1.59.19-.05.4-.06.6-.06,1.41,0,2.82,0,4.23,0,.51,0,.83-.25.88-.65.07-.51-.28-.87-.86-.88-1,0-1.99.02-2.99-.01-1.11-.03-1.78-1.21-1.27-2.19.29-.55.76-.82,1.39-.82,1.14,0,2.28,0,3.41,0,.11,0,.21,0,.32,0,.47-.04.78-.34.77-.77,0-.42-.31-.74-.78-.75-.77-.02-1.54,0-2.31-.01-.85-.02-1.49-.73-1.46-1.57.03-.8.67-1.44,1.51-1.44,1.23-.01,2.47,0,3.7,0,1.46,0,2.92,0,4.37,0,2.1-.01,4.05.52,5.87,1.56.56.33,1.13.66,1.7.96.23.12.31.26.31.53-.01,1.78,0,3.56,0,5.33Zm7.6,8.07c0,.75-.25,1-1.01,1-1.38,0-2.75,0-4.13,0-.66,0-.93-.26-.93-.93,0-5.45,0-10.91,0-16.36,0-.66.26-.92.93-.92,1.39,0,2.77,0,4.16,0,.71,0,.97.26.97.96,0,2.72,0,5.43,0,8.15s0,5.41,0,8.11Z"/>
</svg>