<?xml version="1.0" encoding="UTF-8"?>
<svg id="Capa_1" data-name="Capa 1" xmlns="http://www.w3.org/2000/svg" viewBox="0 0 47.48 41.44">
  <defs>
    <style>
      .cls-1 {
        fill: #008069;
        stroke-width: 0px;
      }
    </style>
  </defs>
  <path class="cls-1" d="m13,27.06s.06-.03.08-.04c.06-.03.12-.05.21-.09-.01.15-.02.26-.04.37-.15,1.19-.27,2.38-.16,3.57.05.51.15,1.03.34,1.51.31.8,1.01.96,1.69.43,1.61-1.24,3.39-2.15,5.34-2.72,1.23-.36,2.49-.53,3.77-.38,2.04.24,3.91.95,5.65,2.04.59.37,1.15.77,1.73,1.15.61.4,1.21.26,1.54-.39.11-.22.2-.46.26-.71.23-.99.19-2,.12-3-.04-.62-.12-1.23-.18-1.86.23.09.45.2.68.27.59.17,1.05-.07,1.22-.66.08-.28.15-.59.13-.88-.07-.86-.16-1.72-.28-2.57-.23-1.64-.61-3.24-1.31-4.75-1.63-3.51-4.23-5.88-8.04-6.81-.09-.02-.18-.11-.25-.18-.28-.33-.52-.69-.83-.99-.67-.63-1.48-.71-2.24-.19-.42.29-.78.67-1.14,1.05-.19.2-.38.32-.63.4-.71.23-1.43.44-2.1.76-2.61,1.24-4.44,3.27-5.66,5.86-.77,1.63-1.16,3.36-1.42,5.13-.08.53-.16,1.07-.24,1.6v1.09s.04.07.04.1c.17,1.04.76,1.36,1.71.9Zm20.08,3.8c-.02.35-.11.7-.18,1.04-.02.12-.08.24-.15.34-.23.38-.55.45-.91.18-.88-.68-1.81-1.27-2.81-1.76-1.5-.73-3.07-1.29-4.74-1.48-1.3-.14-2.57.01-3.82.37-2.07.59-3.96,1.55-5.66,2.86-.36.28-.69.21-.92-.19-.24-.41-.29-.88-.32-1.34-.08-1.43.09-2.84.29-4.25.01-.08.11-.17.19-.21,1.3-.7,2.68-1.19,4.1-1.56,1.7-.44,3.42-.65,5.38-.66,3.07.01,6.17.79,9.1,2.25.07.04.16.12.17.2.2,1.39.37,2.79.29,4.2Zm-8.2-19.51c-.51-.02-1.01-.07-1.51-.07-.51,0-1.01.04-1.51.06,1.1-1.44,2.23-1.18,3.02,0Zm-13.13,14.11c.12-1.07.26-2.14.43-3.2.3-1.85.91-3.59,1.91-5.18,1.65-2.63,3.95-4.38,7.01-5.06.73-.16,1.49-.21,1.99-.28,4.05.13,7.03,1.76,9.18,4.88,1.22,1.76,1.9,3.75,2.23,5.85.15.94.28,1.88.38,2.82.04.32,0,.66-.06.98-.08.44-.34.57-.76.42-.15-.06-.31-.13-.44-.22-1.08-.73-2.29-1.18-3.51-1.59-2.57-.86-5.21-1.24-7.91-1.14-2.84.1-5.56.71-8.08,2.06-.39.21-.75.46-1.13.68-.18.1-.36.19-.56.25-.28.09-.5-.01-.57-.3-.08-.32-.15-.66-.11-.97Z"/>
</svg>