<?xml version="1.0" encoding="UTF-8"?>
<svg id="Capa_1" data-name="Capa 1" xmlns="http://www.w3.org/2000/svg" viewBox="0 0 345.82 74.32">
  <defs>
    <style>
      .cls-1 {
        fill: #fff;
        stroke-width: 0px;
      }
    </style>
  </defs>
  <path class="cls-1" d="m30.68,13.9c2.56,0,3.81,1.64,4.93,6.63.66,2.96,1.25,5.71,3.94,5.71,1.97,0,3.22-1.64,3.22-4.99,0-5.91-3.88-10.38-9.39-10.38H7.69c-1.12,0-2.1.66-2.1,1.71,0,.85.59,1.64,1.58,2.3,1.97,1.25,2.82,3.28,2.82,6.83v21.74c0,3.55-.85,5.58-2.82,6.83-.99.66-1.58,1.45-1.58,2.36,0,.99.66,1.64,1.77,1.64h24.57c6.77,0,10.84-4.07,10.84-10.71,0-2.23-.53-4.66-3.15-4.66-1.97,0-2.96,1.45-4.01,5.78-.79,3.22-1.58,6.57-5.39,6.57-3.48,0-4.99-1.38-4.99-4.47v-12.68c2.17,0,4.2,1.38,5.06,3.09.66,1.45,1.31,2.82,3.09,2.82,1.51,0,2.43-1.05,2.43-2.1v-11.43c0-1.25-.99-2.56-2.56-2.56s-2.23,1.45-2.89,3.02c-.72,1.77-2.82,3.61-5.12,3.61v-11.5c0-3.55,1.77-5.19,5.45-5.19Z"/>
  <path class="cls-1" d="m69.5,48.19c-6.11,0-10.71-4.66-10.71-10.84,0-7.49,3.22-12.74,7.88-12.74,2.56,0,4.07,1.58,4.07,8.47,0,2.5,2.23,4.53,4.73,4.53s4.66-1.97,4.66-4.27c0-7.29-7.03-12.55-16.82-12.55-10.44,0-19.9,6.04-19.9,16.88,0,9.79,7.69,17.34,20.5,17.34,9.72,0,15.83-4.4,18.2-13.6l-2.23-.79c-1.05,4.47-5.39,7.55-10.38,7.55Z"/>
  <path class="cls-1" d="m103.46,20.8c-11.5,0-20.69,7.75-20.69,17.14s9.52,17.01,20.43,17.01,21.02-8.08,21.02-17.47-9.72-16.68-20.76-16.68Zm1.58,30.22c-3.94,0-7.16-7.03-7.16-15.63,0-6.5,1.84-10.64,4.66-10.64,3.74,0,6.57,7.16,6.57,16.42,0,6.57-1.45,9.85-4.07,9.85Z"/>
  <path class="cls-1" d="m150.04,33.22c-5.58-2.63-7.88-4.2-7.88-6.37,0-1.64,1.25-2.3,2.89-2.3,2.56,0,4.8,1.58,4.8,4.53,0,2.69,1.84,5.25,5.39,5.25,3.81,0,5.32-2.89,5.32-4.99,0-4.86-8.15-8.54-18-8.54s-15.57,3.35-15.57,9.2c0,4.27,2.69,6.96,11.17,11.43,6.24,3.22,7.69,4.66,7.69,6.77,0,1.91-1.12,3.02-3.74,3.02-3.74,0-6.83-2.3-6.83-6.7,0-3.81-2.36-5.65-5.52-5.65s-5.19,2.04-5.19,4.99c0,6.31,8.6,11.1,20.95,11.1,11.23,0,16.42-4.01,16.42-9.59,0-4.86-3.94-8.41-11.89-12.15Z"/>
  <path class="cls-1" d="m185.05,47.01c-.85,1.77-1.58,2.43-2.76,2.43-1.71,0-2.17-1.45-2.17-6.11v-13.01c0-7.09,6.96-12.74,15.83-12.74,5.52,0,8.54,2.17,11.1,2.17,2.76,0,4.93-1.64,4.93-4.8,0-3.68-3.09-6.17-9.13-6.17-8.28,0-16.29,4.14-22.73,11.76v-4.47c0-3.74-.59-4.99-2.43-4.99-1.31,0-2.23.59-2.69,1.71-2.56,6.18-6.44,8.01-11.96,8.01-1.25,0-2.1.66-2.1,1.58s.66,1.51,1.64,1.91c1.58.59,2.17,1.77,2.17,4.53v14.52c0,7.69,3.81,11.63,11.23,11.63,5.25,0,8.41-1.97,10.58-6.63l-1.51-1.31Z"/>
  <path class="cls-1" d="m231.04,23.03c0-1.18-1.12-1.58-3.15-1.58h-9.79c-1.64,0-2.43.46-2.43,1.45,0,.92.66,1.51,1.31,2.1.79.66,1.58,1.38,1.58,2.63,0,.92-.39,2.04-1.05,3.15l-4.53,7.55-4.47-7.55c-.66-1.05-1.05-2.17-1.05-3.09,0-1.31.79-2.04,1.58-2.69.66-.59,1.31-1.18,1.31-2.1,0-.99-.79-1.45-2.43-1.45h-21.09c-1.25,0-2.23.72-2.23,1.71,0,.72.59,1.51,2.23,2.43,1.84,1.12,3.42,2.63,4.93,5.06l13.27,20.69-2.3,3.94c-2.5,4.27-3.55,5.52-4.73,5.52-.92,0-1.45-.72-1.58-2.04-.26-2.43-1.77-3.81-4.34-3.81-3.42,0-5.65,2.36-5.65,6.44,0,4.73,3.02,7.82,8.01,7.82,3.74,0,6.37-1.84,9.13-6.31,1.77-2.89,3.55-5.71,5.25-8.61l11.96-20.23c2.43-4.07,4.47-6.37,8.08-8.54,1.31-.79,2.17-1.45,2.17-2.5Z"/>
  <path class="cls-1" d="m269.53,38.34c-1.51,0-2.96,1.58-3.68,2.43-5.06,5.98-8.47,8.67-11.69,8.67-3.81,0-5.32-1.71-5.32-6.11v-21.61c0-3.55.85-5.58,2.83-6.83.99-.66,1.58-1.45,1.58-2.3,0-1.05-.99-1.71-2.1-1.71h-19.84c-1.12,0-2.1.66-2.1,1.71,0,.85.59,1.64,1.58,2.3,1.97,1.25,2.82,3.28,2.82,6.83v21.74c0,3.55-.85,5.58-2.82,6.83-.99.66-1.58,1.45-1.58,2.36,0,.99.66,1.64,1.77,1.64h30.55c7.09,0,11.1-3.15,11.1-8.74,0-4.53-1.12-7.23-3.09-7.23Z"/>
  <path class="cls-1" d="m314.92,11.41c-3.81,0-6.96,2.17-6.96,4.93,0,1.18.72,2.82,2.76,5.98,2.63,3.94,3.88,7.82,3.88,10.9,0,9.72-5.85,16.29-14.52,16.29-7.36,0-12.09-4.66-12.09-10.84,1.77.53,3.55.79,5.06.79,9.66,0,14.06-3.48,14.06-8.74,0-5.98-5.58-9.92-13.99-9.92-11.5,0-20.17,7.29-20.17,16.82,0,10.12,9.85,17.34,23.19,17.34,6.5,0,12.02-1.71,16.75-4.93,7.88-5.39,11.36-13.53,11.36-25.75,0-7.88-3.48-12.87-9.33-12.87Zm-18.59,15.77c2.1,0,3.28,1.05,3.28,2.96,0,3.28-3.48,5.85-8.54,5.85-1.38,0-2.69-.2-2.69-.46,1.05-5.19,4.34-8.34,7.95-8.34Z"/>
  <path class="cls-1" d="m341.14,47.03c-.48-1.2-1.16-2.25-2.03-3.13-.87-.88-1.91-1.57-3.11-2.07s-2.53-.75-3.98-.75-2.7.26-3.91.77c-1.21.51-2.26,1.22-3.15,2.11-.89.89-1.59,1.94-2.11,3.15-.51,1.21-.77,2.52-.77,3.91s.24,2.75.73,3.96c.49,1.21,1.16,2.26,2.03,3.14.86.88,1.9,1.57,3.1,2.07,1.2.5,2.53.75,3.98.75s2.7-.26,3.91-.77c1.21-.51,2.26-1.22,3.15-2.12.89-.9,1.59-1.95,2.11-3.17.51-1.21.77-2.52.77-3.91s-.24-2.75-.72-3.95Zm-1.78,7.22c-.38.98-.91,1.84-1.61,2.58-.7.74-1.54,1.33-2.52,1.77-.99.44-2.09.65-3.31.65-1.13,0-2.18-.2-3.14-.59-.96-.39-1.79-.95-2.5-1.69-.71-.73-1.26-1.61-1.66-2.64-.4-1.03-.6-2.17-.6-3.43,0-1.1.19-2.14.58-3.11.38-.98.92-1.84,1.62-2.58.7-.74,1.54-1.33,2.52-1.77.99-.44,2.08-.65,3.28-.65,1.12,0,2.16.2,3.13.59.97.39,1.8.95,2.51,1.69.71.73,1.26,1.61,1.66,2.64.4,1.03.6,2.17.6,3.43,0,1.1-.19,2.14-.56,3.11Z"/>
  <path class="cls-1" d="m335.71,53.57c-.28-.68-.6-1.19-.97-1.53-.37-.34-.76-.58-1.18-.72.77-.19,1.38-.52,1.84-.98.46-.46.69-1.12.69-1.98,0-.49-.08-.93-.25-1.32-.17-.39-.42-.72-.77-.99-.35-.27-.79-.47-1.32-.61-.53-.14-1.16-.21-1.9-.21h-2.8c-.35,0-.61.1-.77.3-.17.2-.25.47-.25.8v9.65c0,.16.07.27.21.34.14.07.45.1.94.1s.77-.03.89-.1c.12-.07.18-.18.18-.34v-3.87h.73c.66,0,1.16.14,1.49.42.33.28.61.77.84,1.46l.58,1.86c.03.12.08.22.14.29.06.07.14.13.25.17.1.04.24.07.41.09.17.02.37.03.61.03.3,0,.53,0,.69-.03.17-.02.29-.04.38-.07s.14-.07.16-.12c.02-.05.03-.11.03-.18,0-.09-.06-.31-.18-.68l-.68-1.78Zm-2.5-3.73c-.31.31-.87.46-1.69.46h-1.26v-3.19h1.31c.42,0,.76.04,1.03.12.27.08.48.19.64.33.16.14.27.3.33.48.06.18.09.38.09.59,0,.51-.15.91-.46,1.22Z"/>
</svg>