<?xml version="1.0" encoding="UTF-8"?>
<svg id="Capa_1" data-name="Capa 1" xmlns="http://www.w3.org/2000/svg" viewBox="0 0 47.48 41.44">
  <defs>
    <style>
      .cls-1 {
        fill: #008069;
        stroke-width: 0px;
      }
    </style>
  </defs>
  <path class="cls-1" d="m30.92,3.34c-.06-.75-.27-1.37-1.11-1.56h-13.02c-.28.17-.64.27-.81.51-.19.27-.27.66-.29,1.01-.21,4.46-.54,8.91-.57,13.37-.04,6.4.13,12.79.21,19.19.01,1.1.06,2.19.09,3.29,0,.35.17.51.53.51,1.78,0,3.55,0,5.33,0,.36,0,.52-.17.53-.51,0-.26.02-.52.03-.78.21-3.58.42-7.16.64-10.74.2-3.3.4-6.59.61-9.89.03-.54.12-1.07.17-1.61.03,0,.06,0,.09,0,.08.87.19,1.73.24,2.6.14,2.24.27,4.48.4,6.72.19,3.22.38,6.45.57,9.67.08,1.34.15,2.68.23,4.02.02.31.13.52.49.51,1.8,0,3.6,0,5.4,0,.32,0,.48-.14.49-.47,0-.16.02-.32.02-.48.09-4.08.19-8.16.27-12.24.15-7.72.05-15.43-.54-23.14Zm-.44,5.66c0,.09,0,.19,0,.29-1.12-.23-1.98-1.19-2.08-2.28,0-.09-.02-.17-.02-.26-.07-1.17,0-1.24,1.13-1.24.79,0,.78,0,.82.8.04.9.1,1.79.14,2.69Zm-6.76-6.39c.09-.01.18-.03.27-.03,1.77,0,3.55,0,5.32,0,.7,0,.75.06.81.74.04.45.07.9.1,1.38h-6.5v-2.09Zm-7.21.35c.03-.26.22-.37.47-.37.53,0,1.06-.01,1.59-.01,1.29,0,2.59,0,3.88,0,.13,0,.27,0,.44,0v2.12h-6.53c.05-.59.09-1.16.15-1.73Zm-.21,2.76c0-.07.15-.19.23-.2.44-.02.89-.02,1.33,0,.09,0,.24.12.26.21.37,1.53-.15,3.06-2.03,3.59.07-1.22.13-2.42.21-3.61Zm14.12,31.9c-.01.39,0,.79,0,1.21h-4.85c-.04-.58-.08-1.16-.11-1.74-.28-4.86-.52-9.72-.85-14.58-.23-3.47-.58-6.92-.88-10.39,0-.09,0-.19-.04-.25-.11-.14-.23-.34-.37-.37-.23-.05-.37.14-.4.38-.12,1.09-.23,2.18-.35,3.27-.57,5.19-.71,10.4-1.05,15.6-.16,2.53-.3,5.07-.45,7.6,0,.16-.03.31-.05.48h-4.87c0-.71.01-1.4,0-2.08-.17-7.06-.37-14.12-.24-21.19.03-1.7.11-3.4.14-5.1,0-.29.17-.33.37-.4,1.32-.42,2.3-1.2,2.55-2.64.09-.5.02-1.03.01-1.54,0-.11-.03-.21-.05-.35h3.99c0,.99,0,1.95,0,2.91,0,.35,0,.69,0,1.04,0,.44.12.64.4.62.41-.03.38-.35.38-.63,0-1.16,0-2.32,0-3.48v-.44h3.97c-.03.29-.07.57-.08.85-.06,1.85.78,3.08,2.55,3.64.34.11.41.27.42.59.36,9,.11,18-.13,26.99Z"/>
</svg>