<?xml version="1.0" encoding="UTF-8"?>
<svg id="Capa_1" data-name="Capa 1" xmlns="http://www.w3.org/2000/svg" viewBox="0 0 47.48 41.44">
  <defs>
    <style>
      .cls-1 {
        fill: #008069;
        stroke-width: 0px;
      }
    </style>
  </defs>
  <path class="cls-1" d="m37.94,13.07c-1.54-1.95-3.1-3.89-4.61-5.87-.49-.64-1.05-1.08-1.8-1.37-1.5-.58-2.97-1.23-4.45-1.86h-.12c-.8.14-1.59.32-2.4.4-1.52.15-3.03.07-4.53-.28-.11-.03-.22-.08-.33-.12h-.3c-.1.06-.2.12-.31.17-1.59.69-3.18,1.36-4.77,2.06-.17.07-.34.2-.45.34-1.74,2.19-3.47,4.39-5.21,6.59-.28.35-.27.46.09.73,1.64,1.26,3.27,2.53,4.91,3.78.2.15.27.31.27.55,0,5.39,0,10.78,0,16.17,0,.52.05.57.57.57,5.89,0,11.77,0,17.66,0,.07,0,.14,0,.21,0,.22,0,.34-.12.35-.33,0-.11,0-.22,0-.33,0-5.35,0-10.7,0-16.05,0-.26.07-.42.28-.58,1.62-1.23,3.23-2.48,4.84-3.72.44-.34.45-.41.11-.84Zm-24.04,3.95c-1.58-1.22-3.11-2.4-4.66-3.6,1.55-1.96,3.08-3.9,4.66-5.91v9.51Zm12.74-12.29c-.18,1.2-1.32,2.92-3.27,2.95-1.84.03-3.11-1.49-3.38-2.93,2.21.46,4.42.41,6.65-.02Zm5.43,20.54c0,2.87,0,5.74,0,8.62v.37H14.56v-.34c0-8.94,0-17.88,0-26.81,0-.25.08-.37.31-.46,1.36-.57,2.72-1.16,4.08-1.74.11-.05.22-.09.34-.13.6,2.05,1.73,3.61,4.03,3.62,2.34.02,3.45-1.56,4.05-3.63.84.36,1.67.71,2.5,1.07.64.27,1.27.56,1.92.81.23.09.31.21.31.46,0,6.06,0,12.11,0,18.17Zm.66-8.25V7.52c1.57,2,3.11,3.94,4.66,5.91-1.55,1.2-3.08,2.38-4.66,3.6Z"/>
</svg>